<svg width="25" height="24" viewBox="0 0 25 24" fill="none" xmlns="http://www.w3.org/2000/svg">
<path fill-rule="evenodd" clip-rule="evenodd" d="M18.8819 5.63303C18.0502 4.79591 17.0608 4.13214 15.9707 3.68018C14.8807 3.22821 13.7119 2.99703 12.5319 3.00003C7.58388 3.00003 3.55588 7.02703 3.55388 11.977C3.55388 13.559 3.96688 15.103 4.75188 16.465L3.47888 21.116L8.23788 19.867C9.55428 20.5836 11.0291 20.9594 12.5279 20.96H12.5319C17.4789 20.96 21.5069 16.933 21.5089 11.983C21.5123 10.8035 21.2819 9.63502 20.831 8.54509C20.3801 7.45516 19.7176 6.4654 18.8819 5.63303ZM12.5319 19.445H12.5289C11.1924 19.4452 9.88052 19.0856 8.73088 18.404L8.45888 18.242L5.63488 18.983L6.38788 16.23L6.21088 15.948C5.46367 14.7585 5.06811 13.3818 5.06988 11.977C5.07188 7.86303 8.41888 4.51603 12.5349 4.51603C13.5151 4.51385 14.4861 4.70611 15.3915 5.08168C16.297 5.45725 17.119 6.00867 17.8099 6.70403C18.5045 7.39607 19.0551 8.21892 19.4298 9.12503C19.8045 10.0311 19.9959 11.0025 19.9929 11.983C19.9909 16.097 16.6439 19.445 12.5319 19.445ZM16.6249 13.856C16.3999 13.743 15.2979 13.201 15.0919 13.126C14.8869 13.051 14.7379 13.014 14.5879 13.238C14.4379 13.462 14.0079 13.967 13.8769 14.117C13.7459 14.267 13.6149 14.285 13.3909 14.173C13.1669 14.061 12.4439 13.824 11.5869 13.06C10.9199 12.465 10.4699 11.731 10.3389 11.506C10.2079 11.281 10.3249 11.16 10.4379 11.048C10.5389 10.948 10.6619 10.786 10.7739 10.655C10.8859 10.524 10.9229 10.431 10.9979 10.281C11.0729 10.131 11.0359 10 10.9789 9.88803C10.9229 9.77503 10.4739 8.67103 10.2869 8.22203C10.1059 7.78703 9.92088 7.84503 9.78288 7.83903C9.63996 7.83318 9.49692 7.83052 9.35388 7.83103C9.24014 7.83393 9.12822 7.86029 9.02514 7.90848C8.92207 7.95666 8.83006 8.02562 8.75488 8.11103C8.54888 8.33603 7.96988 8.87803 7.96988 9.98203C7.96988 11.086 8.77388 12.153 8.88588 12.303C8.99788 12.453 10.4679 14.718 12.7179 15.69C13.2539 15.921 13.6719 16.059 13.9969 16.163C14.5339 16.334 15.0229 16.309 15.4099 16.252C15.8409 16.188 16.7369 15.71 16.9239 15.186C17.1109 14.662 17.1109 14.213 17.0549 14.119C16.9989 14.025 16.8479 13.968 16.6249 13.856Z" fill="white"/>
</svg>
