<svg width="121" height="67" viewBox="0 0 121 67" fill="none" xmlns="http://www.w3.org/2000/svg">
<path d="M26.1705 63.3013C26.1705 63.3013 26.1772 63.2758 26.1701 63.2171C26.1192 62.5412 26.0377 61.9241 26.0373 61.3069C26.0299 49.1171 26.032 36.9273 26.0314 24.7375C26.0313 24.5499 26.0202 24.3622 26.0143 24.1746C26.0233 24.1242 26.0324 24.0739 26.0566 23.9485C26.1749 23.3735 26.2781 22.8737 26.3813 22.3739C26.3813 22.3739 26.3695 22.369 26.4052 22.3484C26.9925 20.6952 28.049 19.4231 29.3289 18.3107C29.3289 18.3107 29.3178 18.3012 29.359 18.3005C29.597 18.1482 29.7937 17.9965 29.9904 17.8448C29.9904 17.8448 29.9939 17.8481 30.0304 17.8406C30.2408 17.6963 30.4148 17.5596 30.5888 17.4229C30.5888 17.4229 30.56 17.4048 30.6112 17.406C31.0097 17.1479 31.357 16.8887 31.7043 16.6295C31.7622 16.5977 31.8202 16.5658 31.9322 16.5018C32.0923 16.3811 32.1984 16.2926 32.3045 16.204C32.3045 16.204 32.2928 16.1793 32.3383 16.1791C32.6885 15.9489 32.9932 15.7189 33.2979 15.4889C33.2979 15.4889 33.2848 15.4791 33.3242 15.4786C33.4519 15.4036 33.5403 15.329 33.6286 15.2543C33.6286 15.2543 33.6223 15.2495 33.6558 15.2484C33.7161 15.215 33.7429 15.1828 33.7696 15.1506C35.6014 13.862 37.438 12.5801 39.2641 11.2834C44.0251 7.90244 48.7729 4.50284 53.55 1.1446C54.1959 0.690558 54.9796 0.43123 55.7102 0.0408718C56.5544 -4.57836e-07 57.3878 -4.48846e-07 58.2744 2.98999e-09C58.4222 0.0737739 58.5067 0.170809 58.6133 0.217552C59.3149 0.525116 60.0947 0.715543 60.7138 1.14007C63.7756 3.23968 66.797 5.39776 69.8285 7.54112C70.5568 8.05603 70.7819 8.75905 70.4696 9.44543C70.0657 10.3331 69.0428 10.5959 68.1835 9.99905C66.3882 8.75206 64.6066 7.4854 62.8192 6.22722C61.6171 5.38108 60.4191 4.52907 59.211 3.69151C57.7193 2.65734 56.4716 2.68829 54.9895 3.74323C47.2044 9.28437 39.4208 14.8276 31.6243 20.3527C29.8466 21.6125 28.9525 23.2322 28.9592 25.4538C28.9954 37.4806 28.9754 49.5076 28.981 61.5346C28.9812 61.8882 29.0076 62.2526 29.0958 62.5929C29.2689 63.2607 29.7346 63.6434 30.422 63.7233C30.7581 63.7624 31.1001 63.7602 31.4395 63.7603C37.029 63.7622 42.6185 63.7616 48.208 63.7615C48.3968 63.7615 48.5858 63.7588 48.7745 63.7634C49.6242 63.7843 50.2185 64.2172 50.3705 64.9231C50.5323 65.6741 50.1715 66.2912 49.2662 66.6459C43.1437 66.642 37.1151 66.6429 31.0865 66.6508C30.8737 66.6511 30.661 66.7212 30.4482 66.7588C30.3273 66.7588 30.2065 66.7588 30.0236 66.7194C29.259 66.3996 28.5565 66.1192 27.854 65.8389C27.854 65.8389 27.8471 65.8513 27.8424 65.819C27.8021 65.7704 27.7664 65.7541 27.7307 65.7377C27.7307 65.7377 27.7283 65.7421 27.7169 65.7051C27.3007 65.1595 26.8959 64.6509 26.491 64.1422C26.491 64.1422 26.4886 64.0906 26.4783 64.0373C26.4416 63.9542 26.4151 63.9244 26.3887 63.8945C26.3887 63.8945 26.3899 63.8522 26.3771 63.7963C26.2997 63.5941 26.2351 63.4477 26.1705 63.3013Z" fill="white"/>
<path d="M27.5624 1.07764e-07C27.6572 0.0588152 27.6899 0.159088 27.742 0.170422C29.311 0.511558 30.4838 1.54952 31.7422 2.43125C33.5016 3.66404 35.2451 4.91938 37.0019 6.1558C37.5375 6.53273 37.8616 7.00888 37.7626 7.67748C37.5923 8.8274 36.3782 9.3274 35.3862 8.63889C33.6518 7.43515 31.937 6.20336 30.2142 4.98304C29.5837 4.5364 28.9592 4.08092 28.3223 3.64354C26.9343 2.69044 25.656 2.7037 24.2917 3.67992C18.0234 8.16529 11.7506 12.6445 5.49232 17.1437C3.94621 18.2553 3.12916 19.7622 3.13182 21.71C3.14514 31.4599 3.13698 41.2098 3.13721 50.9597C3.13722 51.2042 3.12797 51.4509 3.15548 51.6929C3.25856 52.5998 3.75158 53.1177 4.66525 53.2506C5.01763 53.3019 5.38013 53.2956 5.73803 53.2958C10.629 53.299 15.52 53.2987 20.411 53.2995C21.4277 53.2997 22.0643 53.8445 22.077 54.7238C22.0901 55.6351 21.4384 56.2353 20.4162 56.2358C15.242 56.2383 10.0677 56.2417 4.8935 56.2353C2.54927 56.2325 0.991144 54.9509 0.225486 52.4349C0.189523 41.7172 0.189523 31.0213 0.225264 20.2479C0.708647 17.7909 2.00146 15.9746 3.95814 14.5786C8.57484 11.2848 13.1497 7.93165 17.8045 4.69245C20.1805 3.03898 22.2963 0.962249 25.1222 0C25.9179 0 26.7136 -5.19527e-09 27.5624 1.07764e-07Z" fill="white"/>
<path d="M121 47.728C119.658 51.3029 114.591 50.6705 112.798 48.479C113.078 48.1464 113.364 47.8057 113.687 47.4225C114.452 48.1391 115.29 48.721 116.33 48.8378C116.899 48.9016 117.508 48.8886 118.06 48.7532C118.818 48.5672 119.348 48.0583 119.446 47.2255C119.543 46.4046 119.215 45.7772 118.485 45.4116C117.595 44.9657 116.673 44.5836 115.773 44.1563C115.383 43.9713 114.992 43.775 114.641 43.5278C112.891 42.2959 112.923 39.8172 114.69 38.6065C116.409 37.4285 119.247 37.8041 120.655 39.4221C120.396 39.7304 120.133 40.0435 119.833 40.4001C118.925 39.5541 117.883 39.1818 116.668 39.3047C115.443 39.4286 114.612 40.4391 115.026 41.4582C115.199 41.8852 115.62 42.297 116.035 42.5245C116.888 42.9934 117.815 43.3298 118.708 43.728C119.698 44.1693 120.56 44.7475 120.96 45.8524C121 46.4654 121 47.0703 121 47.728Z" fill="white"/>
<path d="M74.3043 28.7037C73.7761 26.2282 73.2549 23.8 72.7338 21.3717C72.7066 21.3755 72.6794 21.3794 72.6522 21.3832C72.1373 23.9099 71.6225 26.4365 71.1031 28.9854C69.9922 28.9854 68.9018 28.9854 67.7489 28.9854C67.021 25.0801 66.2896 21.1567 65.5518 17.1988C66.4813 17.1988 67.3797 17.1988 68.3459 17.1988C68.7587 20.1029 69.1734 23.0198 69.588 25.9368C69.6206 25.9457 69.6532 25.9545 69.6858 25.9634C70.3248 23.0515 70.9639 20.1396 71.6086 17.2015C72.3989 17.2015 73.1665 17.2015 73.9875 17.2015C74.6417 20.2113 75.2983 23.2319 75.9633 26.2909C76.3987 23.2465 76.8297 20.2334 77.2641 17.1962C78.1255 17.1962 78.9694 17.1962 79.8731 17.1962C79.1735 21.1188 78.4765 25.0269 77.7659 29.0115C76.6926 29.0115 75.6231 29.0172 74.5539 29.0002C74.4717 28.9989 74.3922 28.8378 74.3043 28.7037Z" fill="white"/>
<path d="M94.089 27.5211C93.9895 28.0448 93.903 28.5215 93.8164 28.9987C92.6716 28.9987 91.579 28.9987 90.4122 28.9987C89.8576 26.3632 89.3027 23.7265 88.7554 21.1257C88.2331 23.7037 87.7017 26.3273 87.1647 28.9784C86.0428 28.9784 84.9565 28.9784 83.8046 28.9784C83.077 25.0719 82.3457 21.1455 81.6091 17.1908C82.5498 17.1908 83.4512 17.1908 84.4042 17.1908C84.8326 20.222 85.2604 23.2491 85.6889 26.2809C86.3476 23.2473 87.0062 20.2143 87.6628 17.1904C88.4833 17.1904 89.2342 17.1904 90.0404 17.1904C90.6944 20.1904 91.3463 23.1816 92.0214 26.2786C92.4652 23.1794 92.8939 20.186 93.3226 17.1925C94.2213 17.1925 95.0666 17.1925 95.9292 17.1925C95.3171 20.637 94.7095 24.0555 94.089 27.5211Z" fill="white"/>
<path d="M56.8264 17.3578C59.1501 16.5379 61.409 16.9808 62.7857 18.5262C62.328 19.0817 61.866 19.6421 61.3896 20.2203C60.7297 19.6727 60.0668 19.2835 59.2184 19.2908C57.8429 19.3027 56.8235 19.9575 56.3534 21.2493C55.8864 22.5325 55.8903 23.8398 56.4054 25.1059C56.9824 26.5244 58.6533 27.2452 60.1224 26.7804C60.4498 26.6768 60.6286 26.5299 60.603 26.1472C60.5682 25.6272 60.5943 25.1031 60.5943 24.5378C59.9311 24.5378 59.3171 24.5378 58.6764 24.5378C58.6764 23.805 58.6764 23.1156 58.6764 22.3852C60.0875 22.3852 61.5096 22.3852 62.995 22.3852C62.995 22.7828 62.995 23.1904 62.995 23.598C62.9951 24.6898 62.9234 25.7878 63.0177 26.8715C63.0937 27.7448 62.6815 28.1612 61.996 28.5216C59.4538 29.8581 56.1664 29.288 54.4868 27.1753C53.5136 25.9512 53.2073 24.5011 53.2552 22.9871C53.3331 20.5228 54.2814 18.5462 56.6255 17.4298C56.6761 17.4057 56.7327 17.3939 56.8264 17.3578Z" fill="white"/>
<path d="M55.3723 57.6157C55.3756 57.6986 55.379 57.7816 55.3733 57.9559C55.3863 58.3198 55.4083 58.5923 55.4304 58.8647C55.4368 61.2277 55.4433 63.5908 55.4322 66.036C55.4006 66.2162 55.3866 66.3142 55.3727 66.4123C54.9445 66.4123 54.5163 66.4123 54.0623 66.4123C54.0623 62.4337 54.0623 58.5074 54.0623 54.4998C54.6084 54.4998 55.1524 54.4673 55.6877 54.5214C55.831 54.5359 56.0028 54.7944 56.068 54.9745C57.0136 57.5868 57.9431 60.2049 58.8773 62.8213C58.9273 62.9614 58.984 63.0991 59.0789 63.3453C59.414 62.3524 59.7074 61.4521 60.0214 60.5591C60.6815 58.6821 61.3636 56.8127 62.0089 54.9308C62.1304 54.5767 62.301 54.4617 62.6576 54.4849C63.0861 54.5128 63.5178 54.4915 63.9832 54.4915C63.9832 58.4817 63.9832 62.4074 63.9832 66.3792C63.5389 66.3792 63.0823 66.3792 62.6552 66.3792C62.6552 63.14 62.6552 59.9118 62.6552 56.7005C61.6312 59.5145 60.5926 62.3689 59.5618 65.2017C58.5315 65.3072 58.5344 65.3062 58.1973 64.3814C57.5866 62.706 56.9703 61.0326 56.3599 59.3571C56.1169 58.6899 55.8831 58.0193 55.6319 57.2751C55.5851 57.1417 55.5515 57.0834 55.5179 57.0251C55.5179 57.0251 55.5074 56.979 55.5048 56.9163C55.4537 56.7241 55.4051 56.5946 55.3565 56.4651C55.3154 56.4746 55.2743 56.484 55.2333 56.4935C55.2796 56.8675 55.326 57.2416 55.3723 57.6157Z" fill="white"/>
<path d="M84.505 42.2471C83.7876 44.2033 83.0724 46.1604 82.3509 48.1151C82.2156 48.4816 82.1825 48.8702 81.5781 48.8873C80.9307 48.9055 80.9029 48.4791 80.7635 48.0977C79.9002 45.7347 79.0457 43.3685 78.186 41.0042C78.1282 40.8452 78.0514 40.6931 77.9101 40.5806C77.9101 43.7165 77.9101 46.8524 77.9101 50.0177C77.5128 50.0177 77.0869 50.0177 76.6246 50.0177C76.6246 46.0625 76.6246 42.1242 76.6246 38.1156C77.1707 38.1156 77.6967 38.0868 78.2154 38.1352C78.3513 38.1478 78.5206 38.38 78.5801 38.5452C79.5164 41.1413 80.4367 43.7431 81.363 46.3428C81.4253 46.5175 81.5063 46.6856 81.6154 46.9437C81.9858 45.8615 82.3231 44.8595 82.6717 43.8615C83.2845 42.1075 83.9098 40.3578 84.5162 38.6017C84.6352 38.257 84.7917 38.0685 85.1991 38.1089C85.6257 38.1512 86.0599 38.1184 86.5288 38.1184C86.5288 42.1026 86.5288 46.0416 86.5288 50.0436C86.1139 50.0436 85.7045 50.0436 85.2333 49.9901C85.15 49.6651 85.1285 49.3936 85.1069 49.122C85.1131 47.6983 85.1193 46.2746 85.1365 44.7502C85.1341 44.2578 85.1207 43.8661 85.1073 43.4743C85.1121 43.3186 85.1168 43.1628 85.1355 42.9278C85.1494 42.0966 85.1494 41.3445 85.1494 40.5924C85.1155 40.5816 85.0816 40.5708 85.0477 40.56C84.8986 41.0416 84.7495 41.5232 84.6003 42.0048C84.6003 42.0048 84.6204 42.0176 84.5812 42.0315C84.5296 42.1127 84.5173 42.1799 84.505 42.2471Z" fill="white"/>
<path d="M86.6458 64.839C86.6457 65.3811 86.6457 65.8669 86.6457 66.4259C86.1566 66.4259 85.7069 66.457 85.2659 66.4091C85.1099 66.3922 84.9258 66.2104 84.8378 66.0566C83.111 63.0361 81.3965 60.0085 79.6789 56.9827C79.6185 56.8761 79.5522 56.7729 79.5005 56.6878C79.5005 59.9214 79.5005 63.1462 79.5005 66.3983C79.0783 66.3983 78.631 66.3983 78.1414 66.3983C78.1414 62.455 78.1414 58.5154 78.1414 54.5012C78.6031 54.5012 79.0564 54.455 79.4918 54.5231C79.6763 54.5519 79.87 54.7936 79.98 54.9842C81.7464 58.0455 83.5 61.114 85.2485 64.1669C85.2485 60.9941 85.2485 57.7841 85.2485 54.536C85.6632 54.536 86.1069 54.536 86.6458 54.536C86.6458 57.9529 86.6458 61.3678 86.6458 64.839Z" fill="white"/>
<path d="M120.722 54.5458C120.765 58.4847 120.765 62.4064 120.765 66.4175C120.256 66.4175 119.776 66.4175 119.244 66.4122C119.192 64.5679 119.192 62.7288 119.192 60.8705C117.319 60.8705 115.518 60.8705 113.668 60.8705C113.668 62.723 113.668 64.5404 113.668 66.3902C113.156 66.3902 112.692 66.3902 112.183 66.3902C112.183 62.4586 112.183 58.519 112.183 54.5381C112.657 54.5381 113.134 54.5381 113.669 54.5381C113.669 56.1943 113.669 57.8231 113.669 59.4805C115.515 59.4805 117.302 59.4805 119.158 59.4805C119.158 57.8478 119.158 56.2047 119.158 54.5287C119.711 54.5287 120.195 54.5287 120.722 54.5458Z" fill="white"/>
<path d="M103.868 48.2568C105.62 49.6424 107.862 48.8537 108.314 46.7199C108.411 46.2632 108.46 45.7882 108.463 45.3212C108.477 43.1376 108.468 40.9539 108.468 38.7702C108.468 38.5843 108.468 38.3984 108.468 38.1635C108.986 38.1635 109.461 38.1635 109.991 38.1635C109.991 38.5045 109.994 38.8203 109.99 39.136C109.959 41.563 109.993 43.9932 109.875 46.4161C109.781 48.3383 108.704 49.6553 107.127 50.0947C105.235 50.6217 103.306 50.1143 102.332 48.8194C101.71 47.9922 101.438 47.02 101.417 46.0182C101.366 43.4592 101.386 40.8987 101.379 38.3389C101.379 38.2858 101.406 38.2327 101.429 38.1483C101.893 38.1483 102.358 38.1483 102.932 38.1483C102.932 38.4358 102.93 38.7262 102.932 39.0165C102.947 41.3875 102.942 43.7589 102.991 46.1291C103.008 46.9087 103.263 47.6457 103.868 48.2568Z" fill="white"/>
<path d="M75.086 65.8526C75.0863 66.0519 75.0863 66.199 75.0863 66.3853C72.7138 66.3853 70.3836 66.3853 68.0128 66.3853C68.0128 62.447 68.0128 58.5077 68.0128 54.5307C70.2986 54.5307 72.5713 54.5307 74.8718 54.5307C74.8718 54.9501 74.8718 55.3394 74.8718 55.7981C73.1018 55.7981 71.3421 55.7981 69.5579 55.7981C69.5579 57.0634 69.5579 58.2597 69.5579 59.5208C71.0517 59.5208 72.5314 59.5208 74.038 59.5208C74.038 59.9729 74.038 60.3611 74.038 60.824C72.5554 60.824 71.0762 60.824 69.5657 60.824C69.5657 62.2799 69.5657 63.6612 69.5657 65.0981C71.3936 65.0981 73.1968 65.0981 75.0857 65.0981C75.0857 65.3681 75.0857 65.5842 75.086 65.8526Z" fill="white"/>
<path d="M72.7515 50.0448C72.3492 50.1241 72.2509 49.8976 72.1688 49.6266C71.849 48.57 71.5213 47.5158 71.1934 46.4507C69.747 46.4507 68.335 46.4507 66.8699 46.4507C66.5468 47.4714 66.201 48.4981 65.9033 49.5384C65.7904 49.9329 65.6174 50.1006 65.1991 50.0509C64.8847 50.0134 64.5621 50.0435 64.1704 50.0435C64.2693 49.7252 64.345 49.461 64.4333 49.201C65.6402 45.6457 66.8545 42.0928 68.0479 38.533C68.1597 38.1995 68.3136 38.11 68.6481 38.1113C69.9169 38.1163 69.9207 38.1031 70.3328 39.3142C71.4937 42.7264 72.6515 46.1396 73.8095 49.5527C73.857 49.6929 73.8936 49.8369 73.9544 50.0446C73.5439 50.0446 73.1735 50.0446 72.7515 50.0448ZM70.5111 44.2765C70.0295 42.7562 69.548 41.2358 69.0664 39.7154C69.0212 39.7288 68.976 39.7423 68.9308 39.7557C68.3843 41.5506 67.8379 43.3454 67.2887 45.1492C68.4747 45.1492 69.6105 45.1492 70.7781 45.1492C70.6926 44.8595 70.6189 44.6098 70.5111 44.2765Z" fill="white"/>
<path d="M92.0857 46.8793C92.0859 47.9483 92.0859 48.9607 92.0859 50.0094C91.5573 50.0094 91.0757 50.0094 90.5518 50.0094C90.5518 46.0744 90.5518 42.1319 90.5518 38.1305C91.7488 38.1305 92.9509 38.114 94.1522 38.1381C94.6778 38.1487 95.2111 38.1979 95.7248 38.3059C97.8626 38.7551 98.6166 40.2104 98.3952 42.1597C98.1822 44.0356 96.8803 45.1608 94.8429 45.2898C93.9461 45.3465 93.0427 45.2993 92.0856 45.2993C92.0856 45.8914 92.0856 46.3571 92.0857 46.8793ZM94.9816 43.9608C95.1636 43.9148 95.3521 43.8857 95.5266 43.8198C96.4517 43.4703 96.9008 42.7191 96.8782 41.5791C96.8573 40.5265 96.4545 39.9058 95.5184 39.613C94.4071 39.2655 93.2644 39.3657 92.1323 39.4014C92.1323 40.9956 92.1323 42.5231 92.1323 44.108C93.0845 44.0659 93.9861 44.0261 94.9816 43.9608Z" fill="white"/>
<path d="M95.0758 66.535C94.1814 66.5334 93.3138 66.5195 92.3982 66.5068C92.3502 66.5081 92.3494 66.5123 92.3273 66.4838C92.2374 66.4477 92.1695 66.4401 92.1017 66.4324C92.0658 66.4175 92.0298 66.4025 91.9382 66.3578C91.7651 66.2918 91.6475 66.2553 91.53 66.2189C91.53 66.2189 91.4827 66.193 91.4354 66.1597C91.2492 66.0714 91.1102 66.0165 90.9711 65.9616C90.9711 65.9616 90.9693 65.9687 90.9593 65.9427C90.9238 65.8864 90.8918 65.8762 90.8533 65.8859C90.8533 65.8859 90.8147 65.8515 90.7711 65.8162C90.6227 65.7247 90.5179 65.6684 90.4131 65.6121C90.4131 65.6121 90.4034 65.627 90.3954 65.5891C90.2893 65.4903 90.1913 65.4294 90.0934 65.3684C90.0934 65.3684 90.0582 65.3879 90.0647 65.3515C90.0345 65.2997 89.9978 65.2844 89.9611 65.2691C89.9611 65.2691 89.9565 65.281 89.9527 65.2491C89.9137 65.1987 89.8786 65.1802 89.8436 65.1616C89.8436 65.1616 89.839 65.1719 89.8359 65.1398C89.7985 65.0861 89.7643 65.0645 89.7301 65.0429C89.7718 64.8851 89.7744 64.6994 89.8634 64.5754C90.0481 64.3183 90.2787 64.0939 90.521 63.8217C91.2935 64.5189 92.1345 65.0667 93.1672 65.2347C93.9891 65.3684 94.7978 65.3232 95.511 64.8525C96.6145 64.1243 96.5814 62.5422 95.4094 61.8519C94.6191 61.3864 93.7458 61.0613 92.9113 60.6699C92.537 60.4944 92.1526 60.3341 91.7974 60.1253C90.6768 59.4666 90.0796 58.4965 90.2056 57.1806C90.3318 55.8619 91.1356 55.0369 92.3278 54.5724C94.0377 53.9061 96.2369 54.4238 97.4795 55.7988C97.2316 56.1005 96.9759 56.4119 96.6888 56.7616C96.4554 56.591 96.2525 56.4324 96.0393 56.2888C95.1278 55.6746 94.1327 55.5149 93.0728 55.785C92.3764 55.9625 91.893 56.3841 91.775 57.1139C91.652 57.8748 91.9962 58.4587 92.6512 58.7966C93.5029 59.236 94.3957 59.596 95.2706 59.9905C95.4936 60.0911 95.7211 60.183 95.9376 60.296C97.9179 61.3296 98.4446 63.1508 97.2806 65.1316C97.1515 65.2968 97.0658 65.4084 96.9802 65.5199C96.9802 65.5199 96.9737 65.5165 96.9467 65.5255C96.9003 65.566 96.8808 65.5977 96.8612 65.6293C96.8296 65.6485 96.798 65.6676 96.727 65.7195C96.6651 65.7836 96.6427 65.815 96.6202 65.8464C96.6202 65.8464 96.63 65.853 96.5919 65.8527C96.4629 65.9249 96.3721 65.9975 96.2813 66.07C96.2813 66.07 96.2908 66.0776 96.2549 66.0753C96.166 66.1122 96.113 66.1514 96.06 66.1906C95.9985 66.2088 95.937 66.227 95.8137 66.271C95.5744 66.3678 95.3969 66.439 95.2194 66.5102C95.1805 66.5143 95.1416 66.5184 95.0758 66.535Z" fill="white"/>
<path d="M54.6967 48.4629C52.9475 46.0978 52.9028 42.2794 54.5723 39.9387C56.3096 37.503 60.0237 37.2134 61.9536 39.4144C61.7049 39.7171 61.4489 40.0287 61.1673 40.3715C61.0734 40.3095 60.9889 40.2731 60.9301 40.212C59.4119 38.6366 56.4352 39.0138 55.4515 41.4907C54.7182 43.3372 54.721 45.218 55.6098 47.0141C56.6343 49.0844 59.0703 49.548 60.8621 48.0744C61.0347 47.9324 61.2005 47.7822 61.4127 47.5984C61.692 47.9032 61.9643 48.2006 62.2289 48.4894C60.6086 50.8232 56.6345 50.9159 54.6967 48.4629Z" fill="white"/>
<path d="M106.39 66.6179C105.73 66.5955 105.083 66.563 104.389 66.5357C104.305 66.5268 104.269 66.5127 104.183 66.474C104.088 66.4464 104.045 66.4433 104.001 66.4402C102.784 66.2029 102.022 65.35 101.386 64.4031C99.8941 62.1832 100.028 58.3788 101.619 56.2397C103.229 54.0753 106.443 53.6474 108.503 55.3211C108.661 55.4499 108.832 55.5631 109.023 55.7027C108.677 56.1185 108.415 56.4323 108.125 56.7813C107.441 56.1073 106.69 55.6604 105.715 55.6675C104.156 55.6788 102.957 56.4798 102.391 57.9943C101.775 59.6413 101.776 61.3118 102.4 62.9524C103.356 65.4641 106.125 66.0854 108.081 64.2532C108.174 64.1656 108.272 64.0823 108.402 63.9663C108.68 64.2705 108.945 64.559 109.245 64.8871C109.126 65.0332 109.013 65.1713 108.844 65.3509C108.667 65.5098 108.547 65.6272 108.426 65.7446C108.283 65.8303 108.141 65.9159 107.94 66.035C107.756 66.1455 107.63 66.2225 107.505 66.2996C107.505 66.2996 107.511 66.308 107.466 66.3027C107.092 66.4048 106.764 66.5121 106.435 66.6195C106.435 66.6195 106.403 66.6077 106.39 66.6179Z" fill="white"/>
</svg>
