<svg width="190" height="59" viewBox="0 0 190 59" fill="none" xmlns="http://www.w3.org/2000/svg">
<path d="M189.683 31.6827C189.215 33.5503 188.825 35.3495 188.254 37.0896C187.852 38.316 187.251 39.487 186.639 40.629C186.456 40.9699 185.936 41.3383 185.568 41.3408C179.241 41.384 172.913 41.3719 166.472 41.3719C167.02 40.3674 167.576 39.464 168.021 38.5091C169.047 36.3093 169.626 33.9992 169.924 31.5734C170.363 28.0002 169.54 24.6783 168.21 21.4561C166.854 18.1695 166.263 14.7713 166.518 11.2622C166.79 7.52067 167.757 3.94446 169.728 0.697744C169.813 0.558608 169.942 0.446969 170.071 0.256047C176.355 0.189576 182.619 0.187119 188.883 0.198037C189.15 0.198502 189.416 0.322852 189.615 0.510328C188.713 2.51819 187.736 4.35717 187.075 6.30333C186.046 9.33371 185.903 12.4897 186.702 15.5949C187.265 17.7845 188.112 19.901 188.822 22.0531C189.121 22.9579 189.397 23.8703 189.683 24.7793C189.683 27.0492 189.683 29.3191 189.683 31.6827Z" fill="white"/>
<path d="M0.161652 22.6736C0.965575 19.999 2.67132 18.4141 5.33998 17.8944C5.56238 17.8511 5.78696 17.7869 6.01059 17.7867C11.2706 17.7809 16.5307 17.7823 21.7908 17.785C21.8835 17.785 21.9763 17.8163 22.1087 17.8402C22.1087 19.4026 22.1087 20.9483 22.1087 22.58C21.5554 22.58 21.0315 22.58 20.5076 22.58C16.6458 22.58 12.784 22.5756 8.9222 22.5823C7.54823 22.5847 6.57219 23.4487 6.55899 24.642C6.54512 25.8963 7.51496 26.7719 8.94786 26.7762C11.3115 26.7832 13.6752 26.7793 16.0389 26.7778C19.347 26.7757 22.7535 29.1357 23.2289 33.0145C23.7788 37.5015 20.2326 40.8448 16.8765 41.1715C16.0626 41.2507 15.2467 41.3602 14.4313 41.3634C9.73727 41.3817 5.04314 41.3723 0.255344 41.3722C0.161652 39.8353 0.161652 38.2984 0.255344 36.6678C4.70395 36.5742 9.05918 36.6007 13.4135 36.5486C14.1548 36.5397 14.9367 36.2919 15.6213 35.9814C16.7476 35.4706 17.0061 34.4447 16.5996 33.2919C16.0802 31.8192 14.826 31.6508 13.6148 31.6033C11.2581 31.511 8.88959 31.677 6.53665 31.5455C4.52555 31.433 2.70703 30.6652 1.47419 28.9632C0.945957 28.234 0.593809 27.3772 0.161652 26.5783C0.161652 25.308 0.161652 24.0376 0.161652 22.6736Z" fill="white"/>
<path d="M74.024 58.5642C73.3483 58.043 72.5827 57.6307 72.7647 56.6061C73.3581 56.5632 73.8459 56.4358 74.2914 57.1242C74.5058 57.4555 75.3583 57.5415 75.8832 57.4668C76.7695 57.3406 77.0983 56.8631 77.2961 55.9725C76.5224 55.9725 75.7313 55.9965 74.9424 55.9662C74.0365 55.9313 73.5847 55.2339 73.4315 54.5246C73.1615 53.2747 73.1028 51.9112 73.9729 50.8756C75.1469 49.4786 76.8612 48.6846 78.4271 49.9053C78.9868 49.7279 79.3856 49.6015 80.058 49.3884C79.7772 50.7133 79.5561 51.7712 79.3284 52.8276C79.0643 54.0531 78.8367 55.2887 78.5133 56.4985C78.2701 57.4082 77.7408 58.1381 76.7492 58.4954C75.859 58.5642 74.988 58.5642 74.024 58.5642ZM76.0008 50.5983C75.0964 51.3715 74.4249 52.2638 74.5327 53.5391C74.609 54.4415 75.3415 55.0702 76.1759 54.9654C77.3022 54.8238 78.2362 53.3368 78.1293 51.8554C78.0555 50.8337 77.6429 50.5643 76.0008 50.5983Z" fill="white"/>
<path d="M114.407 58.5657C113.536 58.1536 112.833 57.69 112.928 56.6186C113.555 56.5501 114.01 56.4784 114.47 57.1359C114.876 57.7171 115.716 57.6994 116.431 57.3676C117.1 57.0572 117.481 56.5797 117.493 55.9741C116.651 55.9741 115.884 56.003 115.12 55.9666C114.224 55.9239 113.855 55.2213 113.59 54.5251C112.964 52.8828 113.949 50.5769 115.476 49.678C116.761 48.9218 117.759 49.6958 118.771 49.8597C119.169 49.7317 119.567 49.6036 120.176 49.4081C119.994 50.5567 119.889 51.4789 119.696 52.3819C119.4 53.7629 119.075 55.1399 118.698 56.5007C118.447 57.4085 117.924 58.1397 116.932 58.4969C116.108 58.5657 115.304 58.5657 114.407 58.5657ZM116.359 54.9668C117.872 54.4094 118.761 52.8416 118.276 51.397C118.159 51.0512 117.676 50.6921 117.297 50.5955C115.774 50.2076 114.808 51.9016 114.719 53.0951C114.636 54.2086 115.174 54.8665 116.359 54.9668Z" fill="white"/>
<path d="M132.506 30.5765C132.506 26.2837 132.506 22.0907 132.506 17.7819C132.904 17.7819 133.257 17.7819 133.61 17.7819C138.873 17.7819 144.137 17.7852 149.4 17.7807C152.803 17.7778 156.027 20.2877 156.515 23.8457C156.819 26.0608 156.898 28.1771 155.511 30.1097C154.55 31.4488 153.33 32.4146 151.785 32.98C151.61 33.044 151.453 33.1559 151.223 33.28C153.022 35.9358 154.789 38.5462 156.703 41.3722C155.07 41.3722 153.665 41.3722 152.26 41.3722C149.699 41.3722 149.714 41.3622 148.313 39.2638C147.129 37.4907 145.918 35.736 144.685 33.9966C144.533 33.7821 144.18 33.5994 143.915 33.5938C142.22 33.5578 140.524 33.5754 138.745 33.5754C138.745 36.1572 138.745 38.7042 138.745 41.3113C136.65 41.3113 134.637 41.3113 132.506 41.3113C132.506 37.7776 132.506 34.227 132.506 30.5765ZM138.855 22.5936C138.855 24.6273 138.855 26.661 138.855 28.7772C141.537 28.7772 144.293 28.6937 147.041 28.8058C148.957 28.884 149.851 28.0313 150.277 26.2181C150.729 24.2942 149.327 22.5814 147.332 22.5803C144.571 22.5789 141.809 22.5806 138.855 22.5936Z" fill="white"/>
<path d="M111.716 33.5428C111.417 33.5606 111.119 33.5784 110.749 33.6004C110.749 36.1456 110.749 38.6971 110.749 41.3105C108.668 41.3105 106.655 41.3105 104.58 41.3105C104.58 33.5265 104.58 25.7194 104.58 17.7827C104.901 17.7827 105.252 17.7827 105.603 17.7827C110.93 17.7827 116.258 17.7658 121.586 17.7892C124.727 17.803 127.721 19.9694 128.464 23.2192C129.005 25.5833 129.087 28.0179 127.513 30.1587C126.46 31.5899 125.095 32.5911 123.276 33.1701C123.917 34.1627 124.513 35.0858 125.103 36.1618C124.653 37.8265 124.805 38.1082 126.251 38.4513C126.41 38.4891 126.569 38.5254 126.729 38.5624C126.729 38.5624 126.713 38.5713 126.714 38.6436C126.749 39.2289 126.784 39.7419 126.819 40.2667C127.081 40.3446 127.343 40.4226 127.71 40.5318C127.533 40.6534 127.459 40.7484 127.388 40.746C125.734 40.6895 124.077 40.6522 122.427 40.5256C122.175 40.5062 121.75 40.061 121.754 39.8191C121.777 38.5638 121.008 38.5049 120.093 38.5858C120.093 38.5858 120.109 38.5768 120.108 38.506C120.348 37.6201 120.239 36.9458 119.345 36.6381C119.4 36.2323 119.446 35.8847 119.519 35.3467C118.899 35.3467 118.363 35.3467 117.827 35.3467C117.827 35.3467 117.771 35.3147 117.806 35.2155C117.865 34.7199 117.89 34.3233 117.915 33.9268C116.979 33.886 116.915 33.0781 116.694 32.3922C116.309 32.5175 116.003 32.6167 115.68 32.7215C114.876 31.4725 113.631 32.0037 112.587 32.0735C112.265 32.095 112.004 33.0274 111.716 33.5428ZM114.815 28.7781C116.279 28.7781 117.745 28.734 119.207 28.7888C121.2 28.8635 121.759 28.0692 122.228 26.5593C122.873 24.4794 121.465 22.5824 119.304 22.5809C118.172 22.58 117.041 22.5807 115.909 22.5807C114.192 22.5807 112.475 22.5807 110.775 22.5807C110.775 24.7111 110.775 26.7227 110.775 28.7781C112.094 28.7781 113.354 28.7781 114.815 28.7781Z" fill="white"/>
<path d="M65.1166 26.5789C65.5445 26.579 65.8749 26.579 66.2868 26.579C66.2868 23.6685 66.2868 20.7895 66.2868 17.8469C68.3797 17.8469 70.3924 17.8469 72.4686 17.8469C72.4686 25.627 72.4686 33.4345 72.4686 41.3077C70.4889 41.3077 68.4761 41.3077 66.381 41.3077C66.381 38.062 66.381 34.7833 66.381 31.4412C62.689 31.4412 59.0779 31.4412 55.3846 31.4412C55.3846 34.6894 55.3846 37.9681 55.3846 41.3097C53.2919 41.3097 51.2792 41.3097 49.2037 41.3097C49.2037 33.5275 49.2037 25.7199 49.2037 17.8475C51.1856 17.8475 53.1983 17.8475 55.2936 17.8475C55.2936 20.695 55.2936 23.5742 55.2936 26.5789C58.589 26.5789 61.804 26.5789 65.1166 26.5789Z" fill="white"/>
<path d="M84.5042 18.5725C84.5733 18.0073 84.8257 17.7525 85.4604 17.7656C87.5243 17.8082 89.5904 17.7554 91.6538 17.8083C91.9805 17.8167 92.4625 18.1062 92.5944 18.3935C93.9354 21.3126 95.2299 24.2534 96.5142 27.1982C97.4896 29.4347 98.4171 31.692 99.3924 33.9285C100.407 36.2552 101.455 38.5673 102.481 40.8894C102.53 41.0008 102.501 41.1466 102.515 41.3715C100.43 41.3715 98.3759 41.3861 96.323 41.3485C96.1232 41.3448 95.8419 41.0564 95.7471 40.8362C95.1751 39.5078 94.6464 38.1607 94.0966 36.8035C90.4123 36.8035 86.7542 36.8035 83.0437 36.8035C82.4658 38.0825 81.9006 39.403 81.2645 40.6883C81.1208 40.9787 80.7355 41.3337 80.4526 41.3416C78.4309 41.3977 76.4069 41.3715 74.2747 41.3715C75.1583 39.3683 75.9921 37.463 76.838 35.5632C78.8114 31.1309 80.7875 26.6998 82.7722 22.2726C82.9818 21.805 83.2555 21.3662 83.6057 20.8471C85.0038 20.5273 85.1841 20.0252 84.5042 18.5725ZM90.716 28.1179C90.0809 26.6352 89.4457 25.1524 88.7927 23.6279C87.6459 26.3476 86.5139 29.0322 85.357 31.7757C86.5179 31.7757 87.6085 31.7757 88.699 31.7757C89.8087 31.7757 90.9184 31.7757 92.1115 31.7757C91.6222 30.5417 91.1732 29.4095 90.716 28.1179Z" fill="white"/>
<path d="M29.8307 39.3299C28.7716 38.2974 27.6941 37.3709 26.8042 36.29C25.6057 34.8342 25.2075 33.0488 24.9182 31.1979C24.5957 29.1349 24.7945 27.1836 25.5405 25.2667C27.0905 21.2842 29.9716 18.5791 34.1612 18.0796C38.0092 17.6208 41.955 17.9821 45.9006 17.9821C45.9006 19.4074 45.9006 20.9535 45.9006 22.5798C43.5048 22.5798 41.142 22.6975 38.7952 22.5538C34.6863 22.302 30.8172 25.2978 31.3163 29.964C31.465 31.354 31.7616 32.6448 32.4944 33.803C33.7111 35.7262 35.6343 36.4721 37.7841 36.5504C40.4702 36.6483 43.1626 36.574 45.897 36.574C45.897 38.1923 45.897 39.7384 45.897 41.3712C42.5469 41.3712 39.2207 41.4896 35.9081 41.3286C33.781 41.2252 31.7799 40.3929 29.8307 39.3299Z" fill="white"/>
<path d="M90.7558 54.9673C92.0463 54.9673 93.2413 54.9673 94.4139 54.9673C94.3679 55.3683 94.3276 55.7196 94.2818 56.1196C92.2159 56.1196 90.1305 56.1196 87.8611 56.1196C88.5043 53.0638 89.1412 50.0377 89.7785 47.0096C91.9136 47.0096 94 47.0096 96.0977 47.0096C96.0143 47.3928 95.9395 47.7366 95.8487 48.1536C94.2651 48.1536 92.6436 48.1536 90.9637 48.1536C90.7876 49.02 90.6223 49.8335 90.4387 50.7369C91.9612 50.7369 93.3812 50.7369 94.8886 50.7369C94.9761 51.5599 94.8332 52.0162 93.9079 51.9804C92.682 51.933 91.4529 51.9687 90.1687 51.9687C89.9564 52.9676 89.7516 53.9313 89.5314 54.9673C89.9359 54.9673 90.2981 54.9673 90.7558 54.9673Z" fill="white"/>
<path d="M167.891 48.3648C167.987 47.8715 168.082 47.4656 168.188 47.0116C168.574 47.0116 168.994 47.0116 169.458 47.0116C169.268 47.9661 169.082 48.8962 168.917 49.7218C169.566 49.6053 170.247 49.3287 170.88 49.4134C171.498 49.4962 172.226 49.8083 172.626 50.2647C173.676 51.4631 173.381 52.9275 172.829 54.1989C172.331 55.3474 171.423 56.3069 169.958 56.1485C169.161 56.0624 168.383 55.8024 167.529 55.6052C167.527 55.6173 167.482 55.8553 167.431 56.1295C167.083 56.1295 166.728 56.1295 166.243 56.1295C166.8 53.5347 167.345 50.9935 167.891 48.3648ZM171.89 52.0975C171.803 50.8665 171.435 50.518 170.275 50.5682C168.97 50.6246 167.709 52.7482 168.23 54.0103C168.623 54.9613 169.426 55.3541 170.345 54.9397C171.468 54.4331 171.889 53.4594 171.89 52.0975Z" fill="white"/>
<path d="M53.1998 55.5292C52.7667 55.7693 52.3924 56.0599 52.018 56.3506C51.8902 56.2695 51.7624 56.1884 51.6346 56.1074C52.2648 53.0904 52.8951 50.0734 53.5335 47.0175C53.9181 47.0175 54.273 47.0175 54.7797 47.0175C54.6182 47.9303 54.4596 48.8268 54.238 50.0798C55.6648 48.7317 56.7604 49.6537 57.8607 50.0591C58.1447 50.1637 58.3374 50.6585 58.468 51.0124C59.0351 52.5498 58.2371 54.9413 56.8257 55.7526C55.6369 56.436 54.4106 56.4015 53.1998 55.5292ZM54.2267 51.3776C53.9987 51.8676 53.673 52.3366 53.5622 52.8519C53.2995 54.0727 53.7958 54.9479 54.8276 55.1116C55.7134 55.2521 56.2644 54.6243 56.7649 54.0232C57.4794 53.1651 57.5257 51.5 56.8905 50.8491C56.3769 50.3229 55.1342 50.5281 54.2267 51.3776Z" fill="white"/>
<path d="M177.487 53.1674C176.658 53.1674 175.928 53.1674 175.141 53.1674C174.952 54.003 175.402 54.5407 175.974 54.8981C176.687 55.3438 177.504 55.0981 177.964 54.5306C178.481 53.8926 179.01 53.9371 179.66 54.0118C178.924 56.1557 176.561 56.9811 174.767 55.7037C173.821 55.03 173.808 53.9633 173.895 52.9328C174.11 50.4174 176.067 48.7288 178.421 49.5497C179.568 49.9497 180.467 51.6349 180.056 52.7526C179.985 52.947 179.624 53.1254 179.381 53.1487C178.787 53.2055 178.184 53.1673 177.487 53.1674ZM178.615 51.1927C177.428 50.023 175.919 50.4788 175.433 52.1195C176.563 52.1195 177.703 52.1195 178.871 52.1195C178.799 51.8258 178.74 51.584 178.615 51.1927Z" fill="white"/>
<path d="M124.913 56.0666C123.599 55.6479 123.109 54.6098 123.328 52.6914C123.58 50.4826 125.429 48.6728 127.978 49.5686C129.039 49.9415 129.873 51.7412 129.402 52.734C129.301 52.9457 128.927 53.1403 128.673 53.1479C127.314 53.1883 125.953 53.1669 124.549 53.1669C124.466 53.8604 124.5 54.3911 125.161 54.7873C125.936 55.2525 126.814 55.2151 127.249 54.6305C127.786 53.91 128.332 53.9251 129.022 54.0001C128.605 55.5692 127.846 56.1675 126.265 56.1639C125.834 56.1629 125.403 56.1403 124.913 56.0666ZM128.108 51.5546C127.926 50.719 127.357 50.519 126.58 50.5598C125.554 50.6136 125.076 51.2343 124.759 52.1671C125.731 52.1671 126.648 52.1912 127.562 52.1472C127.75 52.1382 127.926 51.8754 128.108 51.5546Z" fill="white"/>
<path d="M102.841 54.9918C102.003 52.8446 102.759 50.3252 104.712 49.6298C105.539 49.3351 106.683 49.408 107.503 49.747C108.493 50.1557 108.709 51.2914 108.711 52.3454C108.712 52.924 108.445 53.2024 107.803 53.1808C106.476 53.1364 105.147 53.1675 103.759 53.1675C103.668 53.8906 103.725 54.4315 104.437 54.8281C105.241 55.2758 106.107 55.1749 106.516 54.5768C107.027 53.8289 107.587 53.9957 108.217 53.9848C107.942 55.1284 107.099 56.1173 106.189 56.1439C104.985 56.1791 103.637 56.4788 102.841 54.9918ZM104.108 51.868C104.139 51.9675 104.169 52.1536 104.201 52.1541C105.221 52.1694 106.241 52.1666 107.255 52.1666C107.343 50.9954 106.981 50.612 105.953 50.5572C105.039 50.5085 104.476 50.9165 104.108 51.868Z" fill="white"/>
<path d="M164.681 55.5686C163.142 56.6876 160.696 56.3752 160.104 54.8846C159.628 53.6851 159.704 52.3713 160.3 51.1862C161.013 49.7694 162.649 49.0435 164.146 49.3914C165.233 49.644 165.888 50.4911 165.892 51.6508C165.893 52.1144 165.892 52.5781 165.892 53.1234C164.315 53.1234 162.767 53.1234 161.171 53.1234C160.99 53.9812 161.179 54.5327 161.952 54.9286C162.767 55.3455 163.557 55.0851 163.942 54.5313C164.406 53.8625 164.869 53.9661 165.665 54.0241C165.322 54.6056 165.041 55.0826 164.681 55.5686ZM164.688 51.5722C164.438 50.7506 163.892 50.4907 163.045 50.5516C162.018 50.6253 161.677 51.3309 161.241 52.1682C162.313 52.1682 163.271 52.1876 164.226 52.1492C164.386 52.1427 164.537 51.8861 164.688 51.5722Z" fill="white"/>
<path d="M147.979 51.5656C147.481 50.8483 146.932 50.3547 146.042 50.5827C145.775 50.6512 145.548 50.8785 145.303 51.0331C145.484 51.2987 145.608 51.6525 145.857 51.8112C146.34 52.1187 146.886 52.3311 147.416 52.5562C148.404 52.9751 148.683 53.7696 148.48 54.7246C148.276 55.6876 147.475 56.0198 146.606 56.1552C146.184 56.2211 145.743 56.1695 145.31 56.1663C143.847 56.1555 143.141 55.3957 143.153 53.8067C143.545 53.8067 143.938 53.8067 144.34 53.8067C144.745 55.0088 145.512 55.4217 146.619 54.9506C146.886 54.8373 147.235 54.5478 147.251 54.3193C147.266 54.0831 146.973 53.7352 146.725 53.5909C146.203 53.2871 145.606 53.1149 145.069 52.8326C144.424 52.4937 143.76 52.1033 143.91 51.2134C144.051 50.3829 144.387 49.7546 145.364 49.5224C146.371 49.283 147.34 49.2119 148.154 49.8256C148.596 50.1589 148.788 50.8246 149.227 51.5683C148.581 51.5683 148.323 51.5683 147.979 51.5656Z" fill="white"/>
<path d="M66.5342 53.5493C66.8057 52.1764 67.0769 50.8906 67.3324 49.6794C68.5671 49.5699 69.6989 49.438 70.8345 49.3773C72.0917 49.31 72.5839 50.1137 72.3808 51.4209C72.1384 52.9816 71.8076 54.5285 71.5077 56.1208C71.1339 56.1208 70.7823 56.1208 70.2231 56.1208C70.5053 54.7641 70.8161 53.4606 71.0298 52.1414C71.1072 51.6634 70.9522 51.1477 70.9033 50.6492C70.31 50.7265 69.5329 50.5992 69.1662 50.9287C68.6065 51.4317 68.2122 52.2101 67.9625 52.9446C67.6228 53.944 67.4853 55.0121 67.2478 56.1124C66.8533 56.1124 66.4079 56.1124 65.9336 56.1124C66.1406 55.2584 66.3372 54.4474 66.5342 53.5493Z" fill="white"/>
<path d="M185.283 52.7447C185.315 52.4992 185.382 52.3389 185.37 52.1846C185.331 51.6631 185.264 51.1438 185.208 50.6237C184.619 50.7223 183.785 50.6144 183.491 50.9625C182.874 51.6914 182.444 52.6261 182.122 53.5411C181.837 54.3482 181.803 55.2435 181.654 56.1286C181.193 56.1286 180.773 56.1286 180.304 56.1286C180.773 53.9359 181.235 51.7803 181.672 49.7403C182.903 49.6093 184.032 49.444 185.167 49.3799C186.55 49.3019 186.915 50.2203 186.737 51.4018C186.497 52.9884 186.151 54.559 185.849 56.143C185.447 56.143 185.122 56.143 184.563 56.143C184.812 54.9998 185.047 53.9162 185.283 52.7447Z" fill="white"/>
<path d="M99.5249 55.8124C99.858 54.3475 100.221 52.9765 100.491 51.5874C100.545 51.3107 100.301 50.7539 100.091 50.6946C99.6566 50.5723 99.1158 50.5933 98.685 50.7441C97.7959 51.0552 97.4919 51.8572 97.32 52.7141C97.1234 53.6938 97.007 54.7034 96.6727 55.6343C96.5531 55.9674 95.8994 56.1086 95.4895 56.3374C95.4392 56.2475 95.389 56.1576 95.3388 56.0677C95.7345 54.0459 96.0947 52.0155 96.5759 50.0141C96.6298 49.7903 97.3636 49.7005 97.7949 49.6088C98.0219 49.5605 98.2811 49.6838 98.5181 49.6582C99.224 49.5818 99.932 49.3628 100.628 49.4012C101.371 49.4422 101.795 50.0089 101.706 50.7595C101.534 52.2066 101.291 53.6453 101.066 55.0858C101.012 55.431 100.913 55.7692 100.798 56.2697C100.366 56.1444 99.9438 56.0222 99.5249 55.8124Z" fill="white"/>
<path d="M141.849 55.6898C141.449 55.9516 141.093 56.1392 140.738 56.3268C140.653 56.2591 140.568 56.1915 140.483 56.1238C140.699 55.0431 140.904 53.9602 141.134 52.8825C141.227 52.4446 141.442 52.0222 141.47 51.5844C141.488 51.3041 141.327 50.8204 141.137 50.7578C140.701 50.6138 140.056 50.4726 139.753 50.6895C139.18 51.098 138.626 51.6927 138.361 52.3328C137.998 53.2115 137.805 54.1966 137.734 55.1506C137.662 56.1276 137.228 56.3182 136.263 56.0787C136.701 53.9559 137.141 51.8246 137.622 49.4982C138.028 49.6038 138.475 49.7709 138.934 49.8183C139.174 49.8431 139.444 49.6749 139.688 49.565C140.633 49.1386 141.954 49.2248 142.345 49.9777C142.659 50.5793 142.689 51.4135 142.606 52.1167C142.469 53.2947 142.141 54.4505 141.849 55.6898Z" fill="white"/>
<path d="M158.435 54.9672C159.88 55.0325 158.52 55.7771 158.978 56.125C156.86 56.125 154.906 56.125 152.796 56.125C153.445 53.0388 154.08 50.0234 154.713 47.0135C155.213 47.0135 155.635 47.0135 156.121 47.0135C155.57 49.6503 155.031 52.2334 154.461 54.9671C155.788 54.9671 157.065 54.9671 158.435 54.9672Z" fill="white"/>
<path d="M81.1857 52.4358C81.3417 51.8003 81.4495 51.2372 81.5653 50.6321C81.1676 50.5844 80.8536 50.5467 80.5286 50.5077C80.5561 49.926 80.663 49.5422 81.3601 49.5266C81.5582 49.5222 81.7924 49.0319 81.9243 48.7273C82.0736 48.383 82.1263 47.9969 82.2266 47.6074C82.6419 47.6074 83.0626 47.6074 83.5125 47.6074C83.3765 48.2394 83.2493 48.83 83.1043 49.5038C83.5073 49.5423 83.8824 49.5782 84.3097 49.619C84.311 50.2165 84.197 50.6183 83.4618 50.5894C83.2247 50.5801 82.8008 50.7769 82.7639 50.9453C82.4827 52.232 82.2761 53.5349 82.0328 54.9092C82.5442 54.9519 82.9245 54.9837 83.3108 55.016C83.2227 55.3951 83.1435 55.7358 83.0434 56.1663C82.7886 56.1663 82.497 56.1715 82.2056 56.1654C81.0018 56.1403 80.4836 55.4721 80.7489 54.2997C80.8837 53.7037 81.0083 53.1053 81.1857 52.4358Z" fill="white"/>
<path d="M111.219 49.5709C111.549 49.8154 111.759 49.8498 112.127 49.6896C112.663 49.4567 113.276 49.4043 113.896 49.2662C113.921 50.1628 113.659 50.5582 112.908 50.6864C111.342 50.9537 110.998 52.2347 110.719 53.5268C110.604 54.0634 110.49 54.6047 110.438 55.1498C110.348 56.1043 109.86 56.3813 108.949 56.0818C109.339 54.0422 109.707 51.992 110.162 49.9615C110.205 49.7676 110.799 49.697 111.219 49.5709Z" fill="white"/>
<path d="M61.396 49.592C61.6609 49.6598 61.8651 49.782 62.0304 49.7423C62.6109 49.6027 63.178 49.4075 63.802 49.2176C64.1104 50.1864 63.6817 50.6328 62.9995 50.7378C61.6233 50.9495 61.2263 51.9542 60.9425 53.0667C60.6886 54.062 60.4945 55.0726 60.264 56.1223C59.9332 56.1223 59.5821 56.1223 59.0236 56.1223C59.2653 54.9837 59.5029 53.8975 59.7252 52.8081C59.9431 51.7407 60.1454 50.6702 60.3601 49.5722C60.7284 49.5722 61.023 49.5722 61.396 49.592Z" fill="white"/>
<path d="M120.101 38.6584C121.007 38.5055 121.776 38.5644 121.753 39.8197C121.749 40.0616 122.174 40.5068 122.426 40.5262C124.076 40.6528 125.733 40.6901 127.387 40.7466C127.458 40.7491 127.532 40.654 127.709 40.5324C127.342 40.4232 127.08 40.3452 126.818 40.2673C126.783 39.7425 126.748 39.2295 126.717 38.6361C127.379 39.4499 128.038 40.3441 128.796 41.3736C126.49 41.3736 124.377 41.3854 122.264 41.356C122.043 41.353 121.758 41.1557 121.618 40.9642C121.09 40.2384 120.609 39.4779 120.101 38.6584Z" fill="white"/>
<path d="M134.457 51.4855C134.579 50.8322 134.66 50.2559 134.748 49.6246C135.186 49.6246 135.631 49.6246 136.104 49.6246C135.7 51.4771 135.215 53.282 134.944 55.1184C134.807 56.0423 134.481 56.3141 133.455 56.0913C133.772 54.5932 134.094 53.0778 134.457 51.4855Z" fill="white"/>
<path d="M120.9 56.1662C120.007 56.2132 120.292 55.6158 120.36 55.2848C120.744 53.4006 121.178 51.5264 121.605 49.607C121.998 49.607 122.418 49.607 122.86 49.607C122.473 51.5078 122.117 53.3888 121.685 55.2519C121.607 55.5874 121.738 56.2672 120.9 56.1662Z" fill="white"/>
<path d="M64.7344 54.7718C64.6392 55.2635 64.5448 55.6678 64.4385 56.1231C64.0584 56.1231 63.6404 56.1231 63.1893 56.1231C63.5748 54.1357 63.9518 52.1636 64.3427 50.1942C64.4642 49.5821 64.5641 49.5483 65.7912 49.6251C65.4365 51.3244 65.0858 53.0044 64.7344 54.7718Z" fill="white"/>
<path d="M111.808 33.5586C112.004 33.028 112.265 32.0956 112.587 32.0741C113.631 32.0043 114.876 31.4731 115.68 32.7221C116.003 32.6173 116.308 32.5181 116.694 32.3928C116.915 33.0787 116.979 33.8866 117.915 33.9275C117.89 34.324 117.865 34.7205 117.79 35.1881C116.951 33.3346 115.311 33.4766 113.678 33.5712C113.088 33.6054 112.493 33.5749 111.808 33.5586Z" fill="white"/>
<path d="M117.861 35.4026C118.362 35.3469 118.898 35.3469 119.518 35.3469C119.446 35.8849 119.399 36.2325 119.345 36.6383C120.239 36.9461 120.348 37.6204 120.103 38.5143C119.365 37.5482 118.631 36.5032 117.861 35.4026Z" fill="white"/>
<path d="M126.719 38.4897C126.569 38.5247 126.409 38.4884 126.25 38.4506C124.804 38.1075 124.652 37.8258 125.107 36.2328C125.649 36.907 126.179 37.6624 126.719 38.4897Z" fill="white"/>
<path d="M65.9169 46.9711C66.1104 47.123 66.3156 47.2825 66.3041 47.4244C66.2763 47.768 66.1475 48.1034 66.041 48.5123C65.665 48.5123 65.2217 48.5123 64.6369 48.5123C65.1989 48.0356 64.4653 46.7789 65.9169 46.9711Z" fill="white"/>
<path d="M136.368 48.2263C135.961 48.4199 135.608 48.5428 135.035 48.7423C135.156 48.0178 135.237 47.533 135.324 47.0116C135.703 47.0116 136.053 47.0116 136.509 47.0116C136.479 47.4034 136.45 47.7795 136.368 48.2263Z" fill="white"/>
<path d="M121.991 48.4995C121.991 47.9711 122.057 47.5013 122.128 47.0058C122.531 47.0058 122.88 47.0058 123.365 47.0058C123.263 47.5473 123.171 48.031 123.071 48.5581C122.706 48.5581 122.382 48.5581 121.991 48.4995Z" fill="white"/>
<path d="M84.4374 18.6063C85.1839 20.0265 85.0036 20.5286 83.6361 20.7816C83.8305 20.0674 84.1007 19.353 84.4374 18.6063Z" fill="white"/>
</svg>
