<svg width="182" height="63" viewBox="0 0 182 63" fill="none" xmlns="http://www.w3.org/2000/svg">
<path d="M6.246 28.3634C6.24608 29.4243 6.22938 30.406 6.25058 31.3868C6.27587 32.5575 7.04858 33.3352 8.12442 33.3129C9.19004 33.2909 9.86706 32.4722 9.86307 31.291C9.85176 27.9493 9.82522 24.6069 9.87361 21.2657C9.95937 15.3434 14.1757 10.5926 20.05 9.74798C23.9113 9.19275 27.5691 9.67783 30.7798 12.0695C33.6024 14.1721 35.1977 17.0604 35.3064 20.5419C35.4703 25.7883 35.3977 31.0428 35.3782 36.2937C35.3715 38.0957 34.1562 39.2094 32.3942 39.1954C30.6545 39.1817 29.5533 38.0685 29.541 36.1761C29.5119 31.694 29.5422 27.2115 29.519 22.7294C29.5146 21.887 29.4598 21.0263 29.2794 20.2068C28.6851 17.5088 26.4516 15.5386 23.6895 15.344C22.6227 15.2689 21.4954 15.3152 20.4663 15.5806C17.5392 16.3355 15.8327 18.7609 15.7943 22.0817C15.7587 25.1579 15.7873 28.2348 15.7846 31.3114C15.781 35.4449 12.7495 38.8368 8.76083 39.1741C4.59947 39.5261 1.01778 36.677 0.375728 32.4945C0.323727 32.1558 0.321099 31.8071 0.320931 31.4631C0.317821 25.0977 0.311837 18.7323 0.322233 12.3669C0.325798 10.1834 1.99359 8.89969 4.10932 9.41423C5.30582 9.70522 6.12334 10.6576 6.22307 11.8936C6.24861 12.2102 6.24513 12.5296 6.2452 12.8477C6.2464 17.9931 6.24602 23.1384 6.246 28.3634Z" fill="white"/>
<path d="M157.699 38.5879C156.905 37.9263 156.621 37.1018 156.621 36.1559C156.621 25.3384 156.616 14.5209 156.625 3.70337C156.627 1.80534 157.811 0.615773 159.616 0.623142C161.368 0.630299 162.494 1.81655 162.497 3.70764C162.506 9.03667 162.501 14.3657 162.501 19.8215C162.721 19.6709 162.886 19.5788 163.027 19.4588C166.481 16.5241 169.919 13.5714 173.398 10.6658C173.904 10.2428 174.566 9.90163 175.208 9.76721C176.608 9.47373 177.85 10.1375 178.39 11.2944C178.991 12.5811 178.679 14.0859 177.565 15.0502C174.879 17.3748 172.18 19.6834 169.487 21.9987C169.346 22.1194 169.209 22.2434 169.016 22.4135C169.217 22.6242 169.406 22.8302 169.603 23.0276C173.126 26.5537 176.647 30.0818 180.177 33.6017C181.095 34.5179 181.613 35.5834 181.37 36.8915C181.165 37.9918 180.504 38.7482 179.4 39.0592C178.174 39.4049 177.091 39.1328 176.188 38.2338C173.595 35.6519 171.012 33.0612 168.425 30.4739C167.412 29.4615 166.397 28.4517 165.389 27.4352C164.848 26.8894 164.235 26.5483 163.469 26.8908C162.731 27.2213 162.491 27.8592 162.495 28.6446C162.51 31.0838 162.482 33.5233 162.509 35.9622C162.523 37.1619 162.21 38.1879 161.122 38.7991C159.984 39.4388 158.837 39.3377 157.699 38.5879Z" fill="white"/>
<path d="M136.079 32.8363C137.496 33.2923 138.868 33.4313 140.289 33.2012C142.046 32.9168 143.468 33.9435 143.706 35.5942C143.955 37.3294 142.928 38.6898 141.145 38.9856C133.687 40.2231 125.96 34.8666 124.461 27.42C122.498 17.6701 130.6 8.74508 140.487 9.76647C147.39 10.4797 153.134 16.4428 153.608 23.3893C153.754 25.5213 152.52 27.0177 150.372 27.0563C146.476 27.1263 142.578 27.105 138.681 27.0672C137.189 27.0527 136.163 25.8425 136.203 24.3246C136.239 22.9479 137.347 21.8457 138.782 21.8348C141.618 21.8133 144.454 21.8284 147.384 21.8284C146.843 20.0662 145.91 18.6251 144.51 17.5291C141.545 15.209 138.276 14.7495 134.92 16.4639C131.451 18.2357 129.769 21.2472 130.068 25.1243C130.36 28.9034 132.462 31.4696 136.079 32.8363Z" fill="white"/>
<path d="M69.7994 39.0958C62.876 38.4987 57.5753 33.9277 56.1192 27.3522C54.3735 19.4692 60.1143 11.1096 68.1039 9.90058C76.7727 8.58876 84.4107 14.5491 85.2718 23.2977C85.4789 25.4014 84.2485 26.9951 82.1174 27.0454C78.1952 27.1379 74.269 27.1071 70.3452 27.0626C68.8972 27.0462 67.892 25.8282 67.9216 24.347C67.9507 22.8968 69.0305 21.8383 70.5349 21.8313C73.3181 21.8182 76.1015 21.8275 78.9536 21.8275C78.9148 21.6237 78.9058 21.4498 78.8485 21.2936C77.3555 17.2264 73.2153 14.8846 68.8691 15.6439C64.7955 16.3556 61.6287 20.2023 61.6427 24.4218C61.6569 28.7307 64.7645 32.4645 68.9845 33.1374C69.9617 33.2932 70.9903 33.2704 71.9799 33.1731C73.8248 32.9917 75.1758 33.9225 75.4102 35.6673C75.6267 37.2785 74.4996 38.7637 72.8051 38.9767C71.8371 39.0983 70.8498 39.0667 69.7994 39.0958Z" fill="white"/>
<path d="M38.7639 10.5395C38.765 8.17984 38.7392 5.89934 38.7759 3.61984C38.8051 1.80266 39.892 0.687041 41.5919 0.625777C43.4243 0.559738 44.6877 1.72397 44.7133 3.56277C44.7414 5.57734 44.7209 7.59258 44.7215 9.60754C44.7216 9.86644 44.7215 10.1253 44.7215 10.4338C46.6752 10.4338 48.5524 10.4148 50.429 10.4392C52.2639 10.463 53.4502 11.554 53.4821 13.191C53.5143 14.8414 52.369 16.1081 50.7156 16.1444C48.7577 16.1874 46.7981 16.1545 44.874 16.1545C44.8069 16.2404 44.7489 16.28 44.7493 16.319C44.7861 19.5226 44.5898 22.7514 44.9283 25.9231C45.356 29.9301 49.2333 33.1465 53.2864 33.3146C55.2608 33.3965 56.2576 34.3758 56.2143 36.191C56.1721 37.9608 54.9863 39.0465 53.1037 39.039C45.7533 39.0101 39.1586 32.8528 38.8571 25.4897C38.6545 20.5399 38.7834 15.5764 38.7639 10.5395Z" fill="white"/>
<path d="M107.199 19.4535C107.199 14.2823 107.195 9.19054 107.205 4.09886C107.206 3.59909 107.217 3.07949 107.349 2.60357C107.727 1.23571 108.949 0.503692 110.494 0.649064C111.888 0.780178 112.926 1.7605 113.012 3.16509C113.091 4.43345 113.054 5.70916 113.06 6.98166C113.066 8.09203 113.062 9.20246 113.062 10.4351C113.598 10.4351 114.089 10.4309 114.58 10.4358C116.197 10.4521 117.818 10.3996 119.428 10.5119C120.828 10.6095 121.702 11.6247 121.83 13.0352C121.953 14.3911 121.195 15.621 119.937 16.0056C119.516 16.1342 119.05 16.154 118.605 16.1579C116.803 16.1741 115 16.1646 113.201 16.1646C113.15 16.2604 113.082 16.3279 113.082 16.3952C113.094 19.3375 112.977 22.2883 113.161 25.2201C113.429 29.4774 117.404 33.1454 121.682 33.3157C123.643 33.3938 124.684 34.3972 124.647 36.1749C124.611 37.9412 123.421 39.0403 121.543 39.0414C114.793 39.0456 108.395 33.6313 107.465 26.9122C107.13 24.4867 107.274 21.9947 107.199 19.4535Z" fill="white"/>
<path d="M87.4237 36.1023C87.457 31.8417 87.3357 27.646 87.5599 23.4689C87.9074 16.9942 93.6377 11.1191 100.067 10.3809C100.802 10.2965 101.546 10.2208 102.284 10.2355C103.927 10.2682 105.297 11.6538 105.305 13.2252C105.313 14.6729 103.952 16.0888 102.378 16.136C98.7604 16.2445 96.0323 17.7877 94.3113 21C93.6221 22.2865 93.3855 23.6846 93.3922 25.1414C93.4089 28.7998 93.4155 32.4584 93.3909 36.1167C93.3754 38.4139 91.434 39.7822 89.3081 39.0195C87.9885 38.546 87.4759 37.5054 87.4237 36.1023Z" fill="white"/>
<path d="M33.8145 50.0368C34.8346 49.9745 35.8304 49.76 36.7524 49.9347C38.1382 50.1972 38.9442 51.2748 39.0857 52.6304C39.2302 54.016 39.242 55.4425 39.0854 56.8254C38.9101 58.3737 37.8544 59.2794 36.3465 59.5966C36.2565 60.2722 36.6916 60.2481 37.0932 60.255C37.4585 60.2612 37.8241 60.2563 38.1652 60.2563C38.4983 61.4023 38.405 61.5582 37.3715 61.6519C37.0566 61.6804 36.7359 61.7052 36.4224 61.6786C35.1455 61.5707 34.795 61.1679 34.6152 59.6509C32.3311 58.7082 31.7434 57.8374 31.7388 55.3258C31.7374 54.5326 31.7499 53.7355 31.8252 52.9467C31.9488 51.6514 32.5412 50.6387 33.8145 50.0368ZM33.5832 54.8563C33.636 55.5113 33.6153 56.1831 33.7594 56.8173C33.9572 57.6874 34.585 58.0612 35.5484 58.0361C36.4642 58.0123 37.14 57.6244 37.2116 56.7707C37.3272 55.3897 37.3228 53.9845 37.2053 52.6034C37.1336 51.7621 36.4352 51.3563 35.5359 51.3339C34.5948 51.3104 33.9509 51.7037 33.7629 52.5811C33.6155 53.2689 33.6368 53.993 33.5832 54.8563Z" fill="white"/>
<path d="M86.0889 58.7564C86.1397 59.0224 86.1782 59.2245 86.2435 59.5674C85.7151 59.5674 85.2451 59.6151 84.7939 59.5438C84.6148 59.5154 84.398 59.2475 84.3358 59.0462C84.1186 58.3435 83.9616 57.6223 83.7742 56.8784C82.7786 56.8784 81.8101 56.8784 80.7937 56.8784C80.6489 57.4766 80.4736 58.0575 80.3738 58.6511C80.2603 59.3259 79.9768 59.7012 79.2277 59.5766C78.9488 59.5301 78.6556 59.5691 78.2281 59.5691C78.3635 59.0268 78.4712 58.5791 78.5873 58.1337C79.1744 55.8821 79.7564 53.6292 80.3551 51.3808C80.6628 50.2251 81.2692 49.7182 82.2737 49.7236C83.2981 49.729 83.8557 50.2166 84.1679 51.4026C84.8076 53.8317 85.4408 56.2625 86.0889 58.7564ZM83.3244 55.0733C83.0142 53.7953 82.7039 52.5173 82.3937 51.2392C82.2903 51.2461 82.1869 51.253 82.0834 51.2599C81.762 52.6056 81.4405 53.9512 81.0752 55.4803C81.9213 55.3778 82.6373 55.2911 83.3244 55.0733Z" fill="white"/>
<path d="M118.214 54.9054C118.481 52.6919 119.59 51.9854 122.591 52.135C122.591 51.483 122.617 50.8327 122.584 50.1854C122.546 49.4422 123.053 49.579 123.491 49.5644C123.942 49.5494 124.311 49.534 124.304 50.1959C124.276 53.0523 124.299 55.9093 124.276 58.7658C124.274 58.9652 124.064 59.3205 123.921 59.3362C122.824 59.457 121.712 59.629 120.62 59.5574C119.248 59.4675 118.384 58.4975 118.249 57.1127C118.179 56.4052 118.218 55.6872 118.214 54.9054ZM120.486 53.7113C119.701 54.4617 119.966 55.4394 119.963 56.3346C119.955 58.1591 120.865 58.7269 122.557 58.0199C122.557 56.5725 122.557 55.1266 122.557 53.4973C121.875 53.5499 121.238 53.5991 120.486 53.7113Z" fill="white"/>
<path d="M67.2478 56.7791C66.8037 55.2557 66.3849 53.7912 65.9238 52.1785C66.3933 52.1785 66.7293 52.214 67.0547 52.1706C67.6211 52.0952 67.8442 52.3414 67.9625 52.8772C68.2872 54.3478 68.6623 55.8073 69.0225 57.2699C69.0836 57.5181 69.1697 57.7602 69.4177 58.0115C69.6662 57.0801 69.9193 56.1499 70.1619 55.2171C70.3549 54.4753 70.5757 53.7374 70.7086 52.9845C70.821 52.3476 71.0954 52.056 71.7607 52.1728C72.0598 52.2254 72.3707 52.2111 72.7777 52.2325C72.3169 53.8333 71.8894 55.3226 71.4595 56.8112C71.1223 57.9787 70.7956 59.1495 70.4398 60.3113C70.0168 61.6927 69.4651 62.107 68.0314 62.1422C67.6355 62.1519 67.2385 62.1035 66.8417 62.091C66.2495 62.0724 66.1201 61.7471 66.1459 61.2037C66.1752 60.5873 66.5618 60.7144 66.9238 60.7356C67.1353 60.7479 67.3461 60.7728 67.5577 60.7847C68.5656 60.8413 68.7659 60.6826 69.003 59.6499C67.4304 59.3243 67.7359 57.8445 67.2478 56.7791Z" fill="white"/>
<path d="M116.757 53.4365C117.283 54.3812 117.351 55.3388 117.224 56.412C115.735 56.412 114.262 56.412 112.801 56.412C112.68 57.4685 113.133 58.0977 114.084 58.154C115.004 58.2084 115.929 58.1658 116.91 58.1658C116.91 58.5172 116.91 58.9203 116.91 59.5144C115.759 59.5337 114.6 59.6469 113.46 59.5473C112.145 59.4325 111.246 58.4597 111.091 57.1512C111.01 56.471 110.997 55.7745 111.037 55.0901C111.124 53.5909 111.842 52.61 113.042 52.2493C114.474 51.819 115.799 52.2289 116.757 53.4365ZM112.972 54.2614C112.901 54.5585 112.83 54.8556 112.748 55.2005C113.718 55.2005 114.597 55.2005 115.503 55.2005C115.466 54.4965 115.322 53.9007 114.615 53.6423C113.965 53.4048 113.432 53.589 112.972 54.2614Z" fill="white"/>
<path d="M22.8329 59.5652C22.4439 59.2411 22.1183 59.2477 21.691 59.4068C21.2582 59.568 20.7592 59.6486 20.2986 59.619C19.0221 59.537 18.3779 58.8702 18.3172 57.6828C18.2485 56.3377 18.8453 55.5033 20.1101 55.2856C20.81 55.1651 21.5278 55.1493 22.2404 55.0861C22.4954 53.9569 22.2041 53.5618 21.0821 53.5412C20.7111 53.5343 20.3395 53.541 19.9687 53.5545C19.6052 53.5677 19.2424 53.5976 18.8283 53.6234C18.8283 53.209 18.8283 52.8491 18.8283 52.3976C20.1626 52.0349 21.5524 51.8286 22.8696 52.4603C23.3538 52.6926 23.9359 53.3142 23.9678 53.792C24.0939 55.6824 24.0196 57.5861 24.0196 59.5687C23.6334 59.5687 23.2675 59.5687 22.8329 59.5652ZM21.6038 56.3035C21.3929 56.3193 21.1793 56.3191 20.9715 56.3537C20.304 56.4647 19.9919 56.9139 20.0723 57.602C20.1499 58.2659 20.6286 58.3017 21.1259 58.2656C21.4117 58.2448 21.7082 58.1872 21.9717 58.0782C22.6714 57.7888 22.2813 57.162 22.3245 56.6871C22.3344 56.5773 21.9565 56.4322 21.6038 56.3035Z" fill="white"/>
<path d="M53.5666 59.1465C53.1067 59.8646 52.5258 59.5616 51.966 59.4356C51.781 59.394 51.5837 59.3238 51.4057 59.3521C51.069 59.4055 50.747 59.5527 50.4103 59.6049C49.0037 59.823 47.983 59.1727 47.7834 57.9541C47.539 56.4618 48.2584 55.465 49.7621 55.2577C50.4131 55.168 51.0724 55.1385 51.7242 55.082C51.8948 53.8519 51.634 53.5494 50.4031 53.5415C50.0584 53.5392 49.7132 53.5417 49.369 53.5567C49.0294 53.5714 48.6906 53.6048 48.2866 53.6348C48.2866 53.2109 48.2866 52.8305 48.2866 52.3859C49.528 52.0539 50.8049 51.9081 52.0766 52.3269C53.1977 52.6962 53.5649 53.602 53.5705 54.6983C53.578 56.157 53.5726 57.6158 53.5666 59.1465ZM51.044 56.2994C50.7563 56.3295 50.4559 56.3172 50.1834 56.3985C49.594 56.5744 49.4831 57.0591 49.5209 57.5959C49.5595 58.1448 49.943 58.299 50.4062 58.266C50.7676 58.2403 51.1535 58.1984 51.4751 58.0489C52.1315 57.7439 51.7262 57.1177 51.781 56.6397C51.7912 56.5506 51.387 56.414 51.044 56.2994Z" fill="white"/>
<path d="M105.361 59.1881C104.846 59.7764 103.935 59.6939 103.678 59.2659C102.784 59.3864 101.965 59.6014 101.153 59.579C100.207 59.5528 99.5636 58.996 99.4932 58.0635C99.3558 56.2465 99.3637 54.4177 99.3486 52.5935C99.3475 52.4572 99.6287 52.2274 99.8036 52.1998C100.187 52.1394 100.586 52.1811 101.083 52.1811C101.083 53.2147 101.083 54.1596 101.083 55.1046C101.083 55.6608 101.018 56.2275 101.104 56.7701C101.177 57.2264 101.377 57.9959 101.607 58.0291C102.211 58.1165 102.87 57.9069 103.488 57.7428C103.599 57.7133 103.669 57.3368 103.671 57.1195C103.688 55.7953 103.68 54.4708 103.68 53.1464C103.68 52.8613 103.68 52.5762 103.68 52.2353C104.282 52.2353 104.793 52.2353 105.364 52.2353C105.364 54.5629 105.364 56.8381 105.361 59.1881Z" fill="white"/>
<path d="M7.94467 59.2877C7.06774 58.7972 6.58702 58.075 6.50999 57.1575C6.43754 56.2946 6.39977 55.4063 6.52228 54.5545C6.7526 52.953 7.9398 52.0625 9.61119 52.0898C11.2654 52.1167 12.3827 53.0732 12.6017 54.6859C12.6691 55.182 12.6854 55.6892 12.6785 56.1907C12.64 59.0173 10.6388 60.3493 7.94467 59.2877ZM10.9418 56.9574C10.9003 56.1178 10.9457 55.2616 10.7892 54.444C10.6697 53.8204 10.1003 53.514 9.44874 53.5579C8.82193 53.6001 8.38282 53.9792 8.29952 54.5865C8.19966 55.3145 8.16888 56.0633 8.21357 56.7966C8.25623 57.4968 8.55378 58.0927 9.38032 58.1701C10.1928 58.2462 10.6837 57.8528 10.9418 56.9574Z" fill="white"/>
<path d="M40.5931 56.6734C40.593 55.3514 40.6314 54.1047 40.578 52.862C40.5482 52.1673 40.9146 52.1484 41.4109 52.1795C41.8643 52.208 42.3879 52.0323 42.3604 52.8396C42.3136 54.2155 42.3415 55.5943 42.3509 56.9717C42.3574 57.9224 42.6073 58.1976 43.4069 58.1846C44.4109 58.1684 44.8749 57.7639 44.8753 56.9026C44.8759 55.5516 44.9119 54.1992 44.8619 52.85C44.8323 52.0528 45.3355 52.1973 45.7999 52.1791C46.2829 52.1602 46.6595 52.146 46.646 52.8526C46.604 55.0459 46.6307 57.2405 46.6307 59.5515C45.9562 59.4554 45.2648 59.918 44.8062 59.1901C44.1869 59.3396 43.5359 59.5984 42.8726 59.6355C41.5485 59.7097 40.9257 59.1601 40.6846 57.8555C40.6177 57.4938 40.6218 57.1191 40.5931 56.6734Z" fill="white"/>
<path d="M5.48527 5.50868C4.33916 6.53392 3.11831 6.74607 1.94339 6.15924C0.857799 5.61703 0.20922 4.51423 0.336025 3.30008C0.466117 2.05446 1.15344 1.20086 2.33618 0.78033C3.56886 0.342043 4.9503 0.800572 5.7159 1.87301C6.48894 2.95586 6.41857 4.28533 5.48527 5.50868Z" fill="white"/>
<path d="M2.54163 59.1868C2.53733 56.5455 2.53733 53.9795 2.53733 51.3364C1.6947 51.3364 0.911056 51.3364 0.00863124 51.3364C0.00863124 50.9819 0.0264581 50.7021 0.00453504 50.4255C-0.0300553 49.989 0.130211 49.8072 0.589288 49.8112C2.49767 49.8279 4.40634 49.8102 6.3148 49.8224C7.00656 49.8268 7.10972 50.1194 6.83313 51.3125C6.04684 51.3125 5.23867 51.3125 4.34791 51.3125C4.34791 54.0857 4.34791 56.7754 4.34791 59.7101C3.66172 59.5395 3.10382 59.4008 2.54163 59.1868Z" fill="white"/>
<path d="M96.0391 57.1043C95.2781 56.6143 94.5566 56.1703 93.853 55.6995C93.09 55.189 92.7988 54.4554 92.9771 53.5625C93.1515 52.6887 93.7641 52.2317 94.6047 52.192C95.5495 52.1474 96.5114 52.1472 97.4452 52.2771C98.3215 52.3989 97.8985 53.0894 97.892 53.6081C97.0497 53.5688 96.2579 53.4956 95.4684 53.5156C95.2113 53.5221 94.9604 53.7718 94.7067 53.9102C94.859 54.1331 94.9646 54.425 95.1725 54.5659C95.8066 54.9956 96.4967 55.3423 97.1345 55.7671C98.0334 56.3658 98.3828 57.1939 98.1349 58.0752C97.8636 59.0395 97.1544 59.5113 96.2074 59.5797C95.4727 59.6327 94.7267 59.5942 93.9901 59.539C92.9539 59.4615 92.8719 59.3165 93.0993 58.1423C93.9462 58.1848 94.8067 58.2594 95.6663 58.2509C95.9072 58.2485 96.2578 58.0525 96.3501 57.8504C96.4246 57.6872 96.1861 57.3811 96.0391 57.1043Z" fill="white"/>
<path d="M90.2124 53.5119C89.795 53.5077 89.443 53.4631 89.1089 53.5212C88.9051 53.5566 88.6272 53.7157 88.5707 53.8828C88.5218 54.0275 88.6877 54.3367 88.8461 54.4432C89.4374 54.8406 90.1145 55.1229 90.6638 55.5668C91.1581 55.9663 91.6983 56.4552 91.9153 57.0209C92.3537 58.1639 91.5712 59.3838 90.3093 59.5284C89.3512 59.6382 88.3596 59.5348 87.3908 59.443C86.8475 59.3915 86.8547 59.3153 86.9415 58.183C87.264 58.183 87.5939 58.1725 87.9228 58.1854C88.4518 58.206 88.9835 58.288 89.5075 58.2513C89.7533 58.2341 90.1541 58.0277 90.1808 57.8589C90.2189 57.6184 90.0484 57.2381 89.8425 57.0855C89.2067 56.6143 88.5044 56.234 87.8421 55.797C87.1226 55.3224 86.7645 54.6711 86.8531 53.7769C86.9344 52.9571 87.3585 52.3484 88.1328 52.2719C89.2252 52.1639 90.3459 52.205 91.4367 52.3332C91.658 52.3592 91.8004 53.0559 92.0713 53.6432C91.2704 53.5857 90.7779 53.5502 90.2124 53.5119Z" fill="white"/>
<path d="M65.3476 53.4659C64.9352 53.4835 64.5929 53.4835 64.1662 53.4835C64.1662 54.9723 64.1503 56.4194 64.1882 57.8651C64.1925 58.0283 64.4766 58.2628 64.6739 58.3228C64.9354 58.4022 65.2392 58.3423 65.5653 58.3423C65.5653 58.7837 65.5653 59.1408 65.5653 59.5346C65.305 59.575 65.0757 59.6223 64.8441 59.6447C63.0095 59.8219 62.4189 59.2938 62.4055 57.4499C62.3961 56.1557 62.4037 54.8614 62.4037 53.6299C61.9689 53.1039 60.7393 53.8046 60.9181 52.6088C61.0458 51.7544 61.8603 52.4008 62.2995 52.1169C62.6206 50.7594 62.6663 50.7215 64.1311 50.6834C64.1311 51.1492 64.1311 51.6146 64.1311 52.1291C64.637 52.1661 65.0728 52.1979 65.6683 52.2415C65.5768 52.6822 65.4973 53.0653 65.3476 53.4659Z" fill="white"/>
<path d="M13.0318 53.0859C12.7822 51.618 13.9589 52.4359 14.4341 52.1017C14.6171 50.7557 14.6171 50.7557 16.2069 50.6795C16.2342 51.1585 16.2617 51.6411 16.2867 52.0817C16.7512 52.4043 17.7548 51.7006 17.6522 52.907C17.6072 53.4359 17.6293 53.4378 16.2594 53.531C16.2594 54.9729 16.2436 56.4221 16.2815 57.8699C16.2857 58.0313 16.5712 58.2584 16.7695 58.3237C17.0319 58.4102 17.3369 58.3671 17.6592 58.3813C17.6592 58.7655 17.6592 59.101 17.6592 59.6376C16.9155 59.599 16.1586 59.6429 15.4389 59.4997C14.6882 59.3502 14.5472 58.6502 14.5205 57.9999C14.4803 57.0219 14.501 56.0414 14.4974 55.062C14.4956 54.5609 14.4971 54.0598 14.4971 53.567C13.9911 53.4184 13.5235 53.2812 13.0318 53.0859Z" fill="white"/>
<path d="M26.577 59.5708C26.2444 59.5708 25.9831 59.5708 25.6425 59.5708C25.6151 59.2626 25.5738 59.0108 25.5734 58.759C25.5687 55.9761 25.5964 53.1928 25.5533 50.4105C25.5416 49.6552 25.8481 49.5536 26.4926 49.5447C27.1559 49.5356 27.3573 49.7423 27.3499 50.404C27.3184 53.213 27.3282 56.0227 27.344 58.8321C27.3469 59.3442 27.2498 59.6713 26.577 59.5708Z" fill="white"/>
<path d="M55.7443 49.5658C56.5646 49.4433 56.8175 49.7297 56.8033 50.5144C56.7558 53.138 56.7853 55.7631 56.7853 58.3876C56.7852 59.6071 56.7851 59.6088 55.5868 59.5677C55.4323 59.5624 55.2788 59.5298 55.1026 59.5071C55.0732 59.3311 55.0257 59.1786 55.0255 59.0259C55.0211 56.0833 55.0301 53.1406 55.0146 50.1981C55.012 49.703 55.2087 49.519 55.7443 49.5658Z" fill="white"/>
<path d="M106.804 53.2151C106.889 52.8316 106.944 52.2757 107.066 52.2607C107.583 52.1973 108.119 52.2941 108.642 52.445C110.512 51.759 110.729 51.8533 110.568 53.4135C110.529 53.4441 110.493 53.495 110.45 53.502C108.56 53.811 108.56 53.8105 108.559 55.7432C108.559 56.7772 108.514 57.814 108.575 58.8445C108.618 59.5797 108.224 59.585 107.695 59.5786C107.183 59.5723 106.771 59.6055 106.789 58.8593C106.833 57.0043 106.804 55.1476 106.804 53.2151Z" fill="white"/>
<path d="M60.038 56.6911C60.0379 57.512 60.0152 58.2544 60.0451 58.9946C60.0671 59.5392 59.7626 59.6291 59.345 59.5639C58.941 59.5008 58.2883 59.8585 58.2839 59.0308C58.2728 56.9391 58.2651 54.8469 58.3037 52.7558C58.3073 52.5606 58.6194 52.2654 58.8401 52.2046C59.1802 52.1109 59.565 52.1799 60.038 52.1799C60.038 53.7154 60.038 55.1635 60.038 56.6911Z" fill="white"/>
<path d="M125.729 58.6053C125.729 58.251 125.729 57.9687 125.729 57.6441C126.299 57.6441 126.789 57.6441 127.436 57.6441C127.399 58.2561 127.455 58.8925 127.267 59.4461C127.212 59.6058 126.437 59.6111 126.032 59.5161C125.874 59.479 125.827 58.971 125.729 58.6053Z" fill="white"/>
<path d="M72.7712 58.8894C72.7711 58.4531 72.7711 58.0885 72.7711 57.6635C73.3358 57.6635 73.8441 57.6635 74.4779 57.6635C74.4779 58.0768 74.4636 58.4845 74.4818 58.8907C74.5009 59.3205 74.4074 59.6517 73.889 59.5648C73.4585 59.4926 72.7314 59.9179 72.7712 58.8894Z" fill="white"/>
<path d="M59.5157 49.5153C59.7397 49.6716 59.9835 49.8095 60.018 49.9879C60.086 50.3398 60.038 50.7142 60.038 51.1279C59.4415 51.1279 58.9044 51.1279 58.3274 51.1279C58.3274 50.6003 58.3274 50.1153 58.3274 49.5152C58.7285 49.5152 59.0846 49.5152 59.5157 49.5153Z" fill="white"/>
</svg>
