<svg width="210" height="43" viewBox="0 0 210 43" fill="none" xmlns="http://www.w3.org/2000/svg">
<g clip-path="url(#clip0_0_351)">
<path d="M209.932 34.6984C208.932 34.8533 207.932 34.8533 207.079 34.8533C206.878 34.6875 206.795 34.6531 206.771 34.5946C204.681 29.4799 204.681 29.4798 199.235 29.4874C198.539 29.4884 197.832 29.564 197.147 29.4781C193.657 29.0412 190.814 29.4046 190.204 33.8093C190.119 34.4197 188.243 34.7817 187.196 35.2587C187.077 35.068 186.958 34.8774 186.84 34.6867C189.944 26.3026 193.048 17.9186 196.235 9.31157C196.983 9.31157 197.837 9.42 198.652 9.28736C200.039 9.06143 200.542 9.79841 200.965 10.935C203.813 18.6 206.704 26.2492 209.756 33.9138C209.932 34.1306 209.932 34.3371 209.932 34.6984ZM201.567 20.6739C200.555 17.901 199.542 15.1281 198.319 11.7793C196.327 17.2833 194.551 22.1883 192.73 27.2211C196.55 27.2211 200.169 27.2211 204.014 27.2211C203.184 25.0154 202.431 23.0173 201.567 20.6739Z" fill="white"/>
<path d="M18.7499 43.2138C18.5237 41.1409 18.3949 39.0572 18.5814 37.0021C18.6351 36.4108 19.5957 35.8998 20.149 35.3606C20.1889 35.3217 20.2978 35.356 20.3745 35.3522C26.4307 35.0534 26.4307 35.0534 26.4308 42.9968C23.9425 43.2138 21.4548 43.2138 18.7499 43.2138Z" fill="white"/>
<path d="M37.5757 8.44961C37.3522 8.29973 37.1286 8.14986 36.7694 7.76367C36.4964 5.33571 36.3591 3.14406 36.4353 0.942051C38.8172 0.778884 40.9856 0.626075 43.154 0.473267C43.3604 0.473267 43.5669 0.473267 43.9282 0.473267C44.0544 2.7932 44.0256 5.11314 43.8527 7.65447C43.5177 8.01727 43.3269 8.15868 43.1361 8.30008C43.1361 8.30008 43.1163 8.37725 42.9318 8.37822C41.0235 8.40266 39.2996 8.42614 37.5757 8.44961Z" fill="white"/>
<path d="M42.6896 43.2126C41.1277 43.2126 39.5658 43.2126 37.7899 43.0181C37.5574 41.2459 37.3164 39.6309 37.5735 38.0995C37.9433 35.897 39.8959 36.7153 41.1672 36.8293C41.7294 36.8798 42.4972 38.0667 42.6219 38.8278C42.8558 40.2548 42.6894 41.7473 42.6896 43.2126Z" fill="white"/>
<path d="M42.8637 43.2144C42.6894 41.7491 42.8557 40.2566 42.6218 38.8296C42.4971 38.0685 41.7294 36.8815 41.1671 36.8311C39.8959 36.7171 37.9433 35.8988 37.5734 38.1013C37.3163 39.6327 37.5574 41.2477 37.5776 43.0199C37.2309 43.2144 36.8825 43.2144 36.3599 43.2144C36.1857 40.6892 36.1857 38.164 36.1857 35.4001C38.5347 35.4001 40.6826 35.312 42.8118 35.4721C43.2542 35.5053 43.9345 36.4349 43.9769 36.9917C44.1233 38.9123 44.036 40.8507 44.0604 42.9984C43.7347 43.2144 43.3863 43.2144 42.8637 43.2144Z" fill="white"/>
<path d="M8.7667 35.8064C10.7161 35.135 11.7566 35.9245 11.4431 37.8316C11.1698 39.4941 10.9049 41.1579 10.6357 43.0172C10.1396 43.2132 9.64404 43.2132 8.95562 42.9965C8.76406 40.4553 8.76538 38.1308 8.7667 35.8064Z" fill="white"/>
<path d="M6.18306 43.2142C6.12728 41.1761 6.26507 39.138 6.62331 36.9062C7.3308 37.2035 8.17725 37.6539 8.23793 38.1928C8.42435 39.8484 8.30983 41.5379 8.31229 43.2142C7.66707 43.2142 7.02184 43.2142 6.18306 43.2142Z" fill="white"/>
<path d="M36.2217 0.953122C36.359 3.14477 36.4963 5.33642 36.6407 7.71962C36.3383 7.58231 35.7992 7.28012 35.7574 6.92019C35.5243 4.91179 35.4114 2.88941 35.2569 0.672897C35.4628 0.47398 35.6693 0.47398 36.021 0.595176C36.1847 0.795289 36.2032 0.874206 36.2217 0.953122Z" fill="white"/>
<path d="M36.4353 0.942051C36.2033 0.873493 36.1848 0.794576 36.1759 0.594463C38.364 0.473267 40.5424 0.473267 42.9374 0.473267C40.9855 0.626075 38.8171 0.778884 36.4353 0.942051Z" fill="white"/>
<path d="M103.31 33.7745C98.2144 35.7508 93.1839 35.4146 88.1443 34.4046C86.177 34.0103 84.9312 32.6253 84.8107 30.7246C84.4854 25.5908 84.1692 20.4378 84.2779 15.3014C84.3541 11.7053 86.9015 9.69518 90.3086 9.46955C93.8984 9.23181 97.5373 9.45704 101.136 9.72869C103.47 9.90486 105.15 11.5034 105.235 13.7799C105.443 19.3736 105.388 24.9835 105.208 30.5796C105.174 31.6303 104.072 32.6467 103.31 33.7745ZM99.5769 11.9634C96.2879 11.9875 92.9958 11.9375 89.711 12.0691C88.2262 12.1286 87.312 13.0863 87.3014 14.6608C87.2686 19.577 87.2535 24.4933 87.2433 29.4096C87.2396 31.1935 88.3027 32.2563 89.926 32.3052C93.3652 32.4089 96.8136 32.2907 100.256 32.1809C101.813 32.1312 102.627 31.1474 102.675 29.6228C102.823 24.9285 103.057 20.2311 102.989 15.5388C102.964 13.842 102.086 12.2366 99.5769 11.9634Z" fill="white"/>
<path d="M54.3205 16.271C54.3204 13.8846 54.3204 11.73 54.3204 9.44975C55.3565 9.44975 56.2329 9.44975 57.3013 9.44975C57.3013 13.1244 57.3013 16.7309 57.3013 20.4608C62.3958 20.4608 67.3007 20.4608 72.365 20.4608C72.365 16.8096 72.365 13.1995 72.365 9.44916C73.3251 9.44916 74.1312 9.44916 75.0892 9.44916C75.0892 17.7809 75.0892 26.174 75.0892 34.7602C74.3358 34.7992 73.5269 34.8411 72.494 34.8945C72.494 30.9782 72.494 27.1482 72.494 23.2167C67.3797 23.2167 62.4834 23.2167 57.3461 23.2167C57.3461 27.0958 57.3461 30.9172 57.3461 34.7983C56.267 34.7983 55.4285 34.7983 54.3206 34.7983C54.3206 28.6758 54.3206 22.5893 54.3205 16.271Z" fill="white"/>
<path d="M170.491 19.1804C169.841 20.0081 169.19 20.8358 168.522 21.687C172.8 25.9306 177.01 30.107 181.545 34.606C179.17 34.996 177.583 35.0896 176.038 33.3824C173.141 30.1815 170.02 27.1752 166.881 24.2059C166.059 23.4284 164.827 23.0846 163.304 22.2925C163.304 26.9052 163.304 30.7446 163.304 34.7221C162.208 34.7221 161.328 34.7221 160.349 34.7221C160.349 26.333 160.349 17.9393 160.349 9.42578C161.273 9.42578 162.093 9.42578 163.124 9.42578C163.124 12.9999 163.124 16.6 163.124 20.2829C165.256 20.6377 166.549 19.6289 167.995 18.2283C168.58 18.5349 168.87 18.9095 169.522 19.7505C169.442 18.3209 169.392 17.43 169.342 16.5391C169.342 16.5391 169.362 16.5184 169.495 16.6406C169.916 17.5687 170.204 18.3746 170.491 19.1804Z" fill="white"/>
<path d="M136.638 20.8826C134.846 18.2999 133.054 15.7172 131.004 12.7628C131.004 20.3325 131.004 27.4721 131.004 34.7403C129.959 34.7403 129.085 34.7403 128.11 34.7403C128.11 26.3078 128.11 17.9714 128.11 9.63C131.855 8.74861 132.507 9.00172 134.418 12.0991C136.12 14.8574 137.82 17.6171 139.368 20.5805C139.093 20.8307 138.969 20.8767 138.661 20.9212C137.864 20.9073 137.251 20.8949 136.638 20.8826Z" fill="white"/>
<path d="M147.218 32.0639C147.218 24.5795 147.218 17.0952 147.218 9.47253C148.066 9.47253 148.877 9.47253 149.847 9.47253C149.847 17.8137 149.847 26.1952 149.847 35.04C148.198 34.8009 146.555 34.5627 145.036 34.128C145.379 33.9269 145.598 33.9224 145.998 33.9185C146.796 33.6366 147.414 33.354 148.031 33.0715C147.76 32.7356 147.489 32.3997 147.218 32.0639Z" fill="white"/>
<path d="M114.696 32.0129C114.696 24.3767 114.696 16.9655 114.696 9.44525C115.693 9.44525 116.503 9.44525 117.443 9.44525C117.443 17.856 117.443 26.2441 117.443 34.7445C116.574 34.7445 115.762 34.7445 114.696 34.7445C114.696 33.8918 114.696 33.0648 114.696 32.0129Z" fill="white"/>
<path d="M18.5805 21.8426C18.682 20.8751 18.7834 19.9076 19.1775 18.7706C20.5388 18.6004 21.6184 18.6976 22.6736 18.5788C24.8781 18.3305 25.8222 19.2055 25.5084 21.4228C25.4448 21.8727 25.485 22.3373 25.334 22.8152C24.7243 24.8615 23.2366 25.2522 20.0043 24.3775C19.4503 23.3911 19.0154 22.6169 18.5805 21.8426Z" fill="white"/>
<path d="M170.639 19.1242C170.203 18.3744 169.916 17.5685 169.489 16.6275C171.275 14.4661 173.068 12.2826 175.19 10.4881C176.085 9.73057 177.674 9.79269 178.948 9.48224C179.058 9.66611 179.168 9.84998 179.277 10.0339C176.447 13.0453 173.617 16.0567 170.639 19.1242Z" fill="white"/>
<path d="M36.121 19.568C36.4828 18.9129 36.8246 18.1368 37.2086 18.1154C39.3574 17.9953 41.5163 18.0576 43.8568 18.0576C43.8568 20.6261 43.8568 23.051 43.8568 25.6937C41.4085 25.6937 38.9182 25.6937 36.1204 25.6937C36.1204 23.7508 36.1204 21.7731 36.121 19.568ZM40.9403 25.0977C41.6668 24.6619 42.9591 24.2875 43.0142 23.7789C43.1831 22.2211 42.909 20.6079 42.7114 19.0282C42.6889 18.8479 42.0636 18.634 41.7119 18.6229C40.2674 18.5771 38.8205 18.6037 37.4534 18.6037C36.1462 24.0128 37.4046 25.7336 40.9403 25.0977Z" fill="white"/>
<path d="M147.055 32.067C147.49 32.4008 147.761 32.7366 148.032 33.0725C147.414 33.3551 146.797 33.6376 145.985 33.7614C145.59 33.0649 145.391 32.5272 145.198 32.0064C144.814 32.427 144.515 32.7552 144.216 33.0834C143.184 31.4708 142.152 29.8582 141.251 28.0699C143.733 27.5786 141.073 26.5913 141.636 26.03C141.641 26.0247 141.651 26.0139 141.858 26.0086C142.335 25.9596 142.606 25.916 142.878 25.8724C144.216 27.9379 145.554 30.0035 147.055 32.067Z" fill="white"/>
<path d="M18.5437 22.0504C19.0157 22.6163 19.4506 23.3906 20.0046 24.377C23.2369 25.2516 24.7246 24.8609 25.3393 23.02C25.5041 24.0345 25.5205 24.8637 25.537 25.693C23.779 25.7629 22.0214 25.8467 20.2629 25.894C19.744 25.908 19.2223 25.8186 18.5065 25.7607C18.5065 24.5268 18.5065 23.3927 18.5437 22.0504Z" fill="white"/>
<path d="M140.107 26.4626C139.734 25.8776 139.361 25.2927 139.168 24.4898C139.344 24.1843 139.341 24.0967 139.338 24.009C139.256 24.1087 139.173 24.2084 139.09 24.3082C138.511 23.6101 137.931 22.9121 137.49 22.0425C138.034 21.555 138.439 21.2391 138.844 20.9232C138.968 20.8772 139.092 20.8311 139.412 20.7595C140.287 21.7299 140.967 22.7259 141.621 24.0111C141.614 24.8718 141.632 25.4433 141.65 26.0149C141.65 26.0149 141.64 26.0256 141.486 26.009C140.705 25.5821 140.113 25.2593 140.107 26.4626Z" fill="white"/>
<path d="M25.7399 25.6838C25.5201 24.8637 25.5037 24.0345 25.4822 22.9999C25.4849 22.3368 25.4446 21.8722 25.5083 21.4223C25.822 19.205 24.878 18.3299 22.6735 18.5782C21.6182 18.6971 20.5387 18.5998 19.2581 18.6023C21.4233 18.36 23.8005 18.1158 26.6279 17.8253C26.3691 20.7936 26.1562 23.234 25.7399 25.6838Z" fill="white"/>
<path d="M140.144 26.5844C140.114 25.2591 140.706 25.5819 141.481 26.014C141.073 26.592 143.733 27.5793 141.219 27.9081C140.764 27.5162 140.472 27.1113 140.144 26.5844Z" fill="white"/>
<path d="M169.218 16.6104C169.392 17.4292 169.442 18.3201 169.522 19.7497C168.87 18.9087 168.58 18.5341 168.167 18.1712C168.394 17.6827 168.744 17.1826 169.218 16.6104Z" fill="white"/>
<path d="M144.246 33.2195C144.514 32.7544 144.814 32.4262 145.197 32.0056C145.39 32.5264 145.59 33.064 145.803 33.7599C145.598 33.9226 145.379 33.9271 144.996 33.935C144.647 33.7444 144.462 33.5504 144.246 33.2195Z" fill="white"/>
<path d="M138.661 20.9221C138.439 21.2396 138.034 21.5555 137.45 21.8857C137.07 21.6442 136.867 21.3883 136.651 21.008C137.25 20.8959 137.864 20.9082 138.661 20.9221Z" fill="white"/>
<path d="M141.857 26.0097C141.633 25.4435 141.615 24.872 141.653 24.1629C142.066 24.5408 142.423 25.0563 142.828 25.7226C142.606 25.9171 142.335 25.9607 141.857 26.0097Z" fill="white"/>
<path d="M43.2826 8.32573C43.3268 8.15993 43.5178 8.01838 43.832 7.86816C43.78 8.023 43.6047 8.18649 43.2826 8.32573Z" fill="white"/>
<path d="M40.7361 25.0992C37.4052 25.7339 36.1468 24.0131 37.4539 18.604C38.8211 18.604 40.2679 18.5774 41.7125 18.6231C42.0642 18.6343 42.6894 18.8482 42.712 19.0285C42.9095 20.6082 43.1836 22.2214 43.0148 23.7792C42.9597 24.2877 41.6674 24.6622 40.7361 25.0992Z" fill="white"/>
<path d="M139.125 24.3246C139.174 24.2087 139.256 24.1089 139.339 24.0091C139.342 24.0968 139.345 24.1846 139.272 24.3389C139.196 24.4056 139.158 24.3406 139.125 24.3246Z" fill="white"/>
<rect x="34.7916" y="0.0098877" width="10.2203" height="10.2203" fill="white"/>
<rect x="34.7916" y="17.1984" width="10.2203" height="10.2203" fill="white"/>
<rect x="34.7916" y="32.5294" width="10.2203" height="10.2203" fill="white"/>
<rect x="17.1387" y="34.3868" width="10.2203" height="10.2203" fill="white"/>
<rect x="17.1387" y="16.733" width="10.2203" height="10.2203" fill="white"/>
<rect x="1.34339" y="33.4581" width="10.2203" height="10.2203" fill="white"/>
<path d="M132.155 13.9229L134.331 12.5387L147.805 33.7185L147.215 34.6194L144.66 34.1551L132.155 13.9229Z" fill="white"/>
<path d="M175.089 10.2307L179.315 10.0203L169.101 20.8699L167.094 18.9807L175.089 10.2307Z" fill="white"/>
</g>
<defs>
<clipPath id="clip0_0_351">
<rect width="209.052" height="42.7395" fill="white" transform="translate(0.414734 0.00958252)"/>
</clipPath>
</defs>
</svg>
