<svg width="25" height="31" viewBox="0 0 25 31" fill="none" xmlns="http://www.w3.org/2000/svg">
<path d="M1.65741 7.49145C1.65741 6.30024 2.13061 5.15782 2.97293 4.31552C3.81523 3.4732 4.95765 3 6.14886 3H19.6232C20.8144 3 21.9568 3.4732 22.7991 4.31552C23.6414 5.15782 24.1146 6.30024 24.1146 7.49145V16.4744C24.1146 17.6655 23.6414 18.8079 22.7991 19.6503C21.9568 20.4926 20.8144 20.9658 19.6232 20.9658H6.14886C4.95765 20.9658 3.81523 20.4926 2.97293 19.6503C2.13061 18.8079 1.65741 17.6655 1.65741 16.4744V7.49145Z" stroke="white" stroke-width="1.28571" stroke-linecap="round" stroke-linejoin="round"/>
<path d="M10.6398 8.61523L16.2541 11.9838L10.6398 15.3524V8.61523Z" stroke="white" stroke-width="1.28571" stroke-linecap="round" stroke-linejoin="round"/>
</svg>
