<svg width="19" height="19" viewBox="0 0 19 19" fill="none" xmlns="http://www.w3.org/2000/svg">
<path d="M1.61596 7.35818C3.53618 11.5429 6.95297 14.8699 11.2009 16.6735L11.8819 16.9771C13.4398 17.6716 15.2712 17.144 16.2214 15.7269L17.1113 14.3998C17.4006 13.9683 17.3125 13.3871 16.9083 13.0609L13.8905 10.6248C13.4472 10.2669 12.7954 10.3503 12.4563 10.8081L11.5227 12.0687C9.12717 10.8863 7.18227 8.9402 6.00057 6.54323L7.26033 5.6091C7.71792 5.2698 7.80117 4.61761 7.44359 4.17408L5.00889 1.15437C4.68289 0.750049 4.10223 0.661854 3.67101 0.95117L2.33551 1.84717C0.910339 2.80334 0.385915 4.65095 1.09606 6.21392L1.61518 7.35648L1.61596 7.35818Z" fill="white"/>
</svg>
