<svg width="19" height="19" viewBox="0 0 19 19" fill="none" xmlns="http://www.w3.org/2000/svg">
<path d="M4.40423 1.72959C7.48264 1.44951 10.5785 1.44951 13.6569 1.72959L15.1401 1.86453C16.1274 1.95436 16.973 2.57073 17.4111 3.4524C17.4672 3.56519 17.4252 3.70175 17.3219 3.76868L11.1684 7.75563C9.84858 8.61071 8.18441 8.62871 6.84812 7.80221L0.65344 3.97105C0.553358 3.90915 0.507419 3.78173 0.552523 3.66959C0.953358 2.67302 1.85453 1.96157 2.92108 1.86453L4.40423 1.72959Z" fill="#FAFAFB"/>
<path d="M0.548174 5.6976C0.395008 5.60288 0.199574 5.70482 0.18172 5.89008C-0.0674642 8.47575 -0.00715447 11.086 0.362649 13.6598C0.557602 15.0167 1.61569 16.057 2.92177 16.1758L4.40492 16.3107C7.48333 16.5908 10.5792 16.5908 13.6575 16.3107L15.1407 16.1758C16.4468 16.057 17.5049 15.0167 17.6998 13.6598C18.0805 11.011 18.1333 8.32365 17.8582 5.66409C17.839 5.47752 17.6401 5.37746 17.4877 5.47623L11.9444 9.0678C10.1588 10.2247 7.90738 10.249 6.09941 9.1308L0.548174 5.6976Z" fill="#FAFAFB"/>
</svg>
