<svg width="62" height="36" viewBox="0 0 62 36" fill="none" xmlns="http://www.w3.org/2000/svg">
<path d="M18.1465 27.6634C10.2169 27.6632 6.69698 27.8922 4.43756 28.0713C2.70169 28.209 1.30915 29.6668 1.30915 31.3759C1.30915 33.0998 2.72447 34.4912 4.44984 34.4643L27.2262 34.1096C35.0573 33.9876 42.0424 29.1526 44.913 21.8657L46.5403 17.7348C47.617 15.0018 49.3599 12.5813 51.6106 10.6936L57.7565 5.53905C58.9854 4.5083 59.7843 3.51829 60.222 2.69058C60.6741 1.83572 60.6874 1.26521 60.5727 0.987417C60.4946 0.798147 60.2756 0.568987 59.5967 0.63506C58.9019 0.702671 57.8723 1.08823 56.5349 1.98954C55.7691 2.50564 54.8547 2.85188 53.8804 3.22084C53.7972 3.25235 53.7135 3.28402 53.6295 3.31597C52.5404 3.73021 51.3103 4.21681 49.9087 5.03663C47.1135 6.67157 43.5703 9.67192 39.2443 16.1608L39.2253 16.1894C37.0588 19.4391 35.4887 21.7942 34.1579 23.48C32.8203 25.1743 31.6781 26.2544 30.3446 26.8997C29.011 27.545 27.5547 27.7216 25.6688 27.7512C24.7267 27.766 23.6575 27.7438 22.4284 27.7184L22.4196 27.7182C21.1832 27.6926 19.7763 27.6635 18.1465 27.6634Z" fill="#A1C738" stroke="#A1C738" stroke-width="1.24721"/>
</svg>
