<svg width="62" height="36" viewBox="0 0 62 36" fill="none" xmlns="http://www.w3.org/2000/svg">
<path d="M44.0078 27.6575C51.9374 27.6573 55.4573 27.8863 57.7167 28.0655C59.4526 28.2031 60.8451 29.661 60.8451 31.37C60.8451 33.094 59.4298 34.4854 57.7045 34.4585L34.9281 34.1037C27.097 33.9817 20.1119 29.1468 17.2413 21.8599L15.614 17.729C14.5373 14.9959 12.7944 12.5754 10.5437 10.6878L4.39783 5.53319C3.16886 4.50244 2.36997 3.51243 1.93227 2.68472C1.48021 1.82986 1.46691 1.25935 1.58159 0.981558C1.65973 0.792288 1.87868 0.563128 2.55762 0.6292C3.25237 0.696811 4.28202 1.08237 5.61943 1.98368C6.38525 2.49978 7.29958 2.84602 8.27393 3.21498C8.35712 3.24649 8.44075 3.27816 8.52477 3.31011C9.61385 3.72435 10.844 4.21095 12.2456 5.03077C15.0408 6.66571 18.584 9.66606 22.91 16.155L22.929 16.1835C25.0955 19.4332 26.6656 21.7884 27.9964 23.4742C29.334 25.1684 30.4762 26.2486 31.8097 26.8939C33.1433 27.5392 34.5996 27.7157 36.4855 27.7453C37.4276 27.7601 38.4968 27.738 39.7259 27.7125L39.7347 27.7123C40.971 27.6867 42.378 27.6576 44.0078 27.6575Z" fill="#A1C738" stroke="#A1C738" stroke-width="1.24721"/>
</svg>
